<svg width="64" height="70" viewBox="0 0 64 70" fill="none" xmlns="http://www.w3.org/2000/svg">
<path d="M21.9143 33.2515C21.1045 33.1019 20.4327 33.2229 20.1474 32.2715C18.9854 28.3823 18.8764 24.4711 19.6943 20.5142C20.1234 18.4386 22.5012 17.5788 24.0636 18.9527C24.6644 19.4808 25.2521 20.0447 25.6731 20.7504C28.1785 24.9461 27.0828 28.8132 24.216 32.2392C23.6345 32.935 22.7619 33.3716 21.9143 33.2515ZM58.8159 63.8076C54.984 62.5909 51.572 61.1978 48.2002 59.7445C42.2205 57.1649 36.711 53.7746 31.9505 49.2282C29.4765 46.8658 27.0533 44.453 25.0643 41.6654C23.7942 39.8872 22.4686 38.1161 21.577 36.0891C21.4194 35.7329 20.9718 35.1913 21.8638 35.0783C24.8418 34.6969 26.354 32.4919 27.7683 30.194C28.8223 28.4821 29.5066 26.5384 29.3575 24.5852C29.1733 22.1872 28.2869 19.9021 26.4063 18.2356C25.898 17.784 25.557 17.2115 24.9501 16.8065C22.3899 15.0965 17.5407 18.0624 17.3418 21.5479C17.1563 24.7725 17.0447 27.9752 17.641 31.1647C17.6703 31.3182 17.7324 31.4604 17.5035 31.6827C15.9749 30.757 14.503 29.7053 13.0857 28.555C9.88207 25.9535 7.31767 22.7818 5.25056 19.247C3.4277 16.1318 2.22985 12.7177 2.3357 9.031C2.38387 7.35176 2.8762 5.68397 3.62484 4.14806C4.19385 2.98027 4.84984 1.85617 5.47287 0.714511C5.53972 0.59042 5.72876 0.483918 5.57772 0.337126C5.47978 0.242933 5.30107 0.17248 5.16764 0.181728C4.90051 0.203677 4.67889 0.331889 4.46329 0.529825C1.21457 3.51165 -0.125358 7.19363 0.364747 11.5881C0.890817 16.3294 3.05546 20.3461 5.83927 24.0509C9.09196 28.3762 13.0099 31.944 17.9947 34.1796C18.3751 34.3488 18.5933 34.5735 18.75 34.9713C20.4592 39.2689 23.1323 42.9258 26.0926 46.4215C28.9816 49.832 32.2796 52.7941 35.7908 55.4865C38.6922 57.709 41.9191 59.4662 45.2438 61.0118C49.5335 63.0052 53.9915 64.5407 58.4652 66.037C59.287 66.3121 59.3355 66.3217 60.0287 66.94C58.2563 67.0319 56.5995 67.1663 54.9401 67.1874C52.7125 67.2185 50.5063 67.4891 48.2937 67.6807C47.522 67.7465 46.7517 67.8102 45.9946 67.659C45.2398 67.5079 44.731 67.8285 44.3215 68.4015C43.7864 69.1472 44.0215 69.7288 44.9462 69.8722C46.7864 70.1596 48.6311 69.9325 50.4621 69.7793C53.8306 69.4952 57.1962 69.3066 60.5766 69.3547C61.1366 69.3636 61.7184 69.4435 62.2543 69.1285C63.3128 68.5066 63.3825 67.9199 62.8507 66.8281C61.9244 64.9242 61.1494 62.9443 60.2781 61.0101C59.3315 58.9107 58.3729 56.8196 57.717 54.6019C57.5367 53.9923 57.0754 53.4808 56.4787 53.6215C55.784 53.7868 55.5582 54.4687 55.6228 55.1987C55.8082 57.2574 56.9312 58.9711 57.6454 60.8354C57.9962 61.7538 58.3658 62.6656 58.815 63.8041" fill="black"/>
</svg>
