<svg width="38" height="82" viewBox="0 0 38 82" fill="none" xmlns="http://www.w3.org/2000/svg">
<path d="M28.5035 81.6571C25.0972 79.9742 21.5973 79.0473 17.7886 79.0146C17.1863 79.0091 16.694 78.1761 17.1247 77.6879C17.2686 77.5212 17.4238 77.3672 17.5737 77.2009C17.66 76.8736 17.8913 76.567 18.2139 76.4653C18.2324 76.4604 18.2513 76.4494 18.2699 76.4444C20.1805 74.4063 22.2377 72.5643 24.5215 70.9049C25.1321 70.4637 26.3381 70.9643 25.9216 71.828C24.9558 73.8437 23.6201 75.4264 21.914 76.5822C24.9891 76.1543 27.7846 74.2835 29.4948 71.6231C31.7085 68.1707 31.3032 64.3331 29.2961 60.9202C26.4371 56.0667 21.5441 52.7666 18.6094 47.957C18.0211 46.9974 17.5749 46.0039 17.2456 44.9872C12.4699 42.8906 8.67879 38.973 5.73731 34.6887C1.61245 28.7025 -1.79949 22.7041 1.16071 15.4946C6.85483 1.60592 24.201 -4.81624 36.6878 4.68813C37.0896 4.99603 36.6674 5.64785 36.2471 5.3449C24.9123 -2.74942 9.34745 2.4791 3.37736 14.4537C1.84308 17.5355 0.882527 20.8992 1.88553 24.3069C2.94345 27.9172 5.44862 31.5531 7.64271 34.5842C10.0394 37.8933 13.1049 41.0125 16.7467 42.9329C16.1548 39.1629 17.1304 35.238 19.1735 31.7876C21.7452 27.4317 26.8548 23.9033 31.9534 26.5086C36.6799 28.9225 38.4944 34.965 36.1735 39.6077C33.4037 45.1485 26.7738 47.4202 20.9182 46.1842C20.4672 46.091 20.0298 45.9743 19.5987 45.8521C20.3215 47.418 21.3454 48.9352 22.6444 50.4326C25.4807 53.7194 28.9005 56.6118 31.0474 60.4379C35.0658 67.6024 30.7867 76.1116 23.6248 78.0133C25.629 78.5009 27.5629 79.2503 29.4175 80.3092C30.3537 80.8422 29.4255 82.1228 28.5092 81.6635L28.5035 81.6571ZM23.9177 44.8755C30.6637 45.0584 38.2039 38.6283 34.5862 31.5843C32.9113 28.3181 29.1788 26.3862 25.6298 27.9282C22.5992 29.2471 20.5725 32.3178 19.4407 35.2845C18.2372 38.4343 18.1192 41.2436 18.8636 43.8805C20.4538 44.4705 22.1369 44.8303 23.9177 44.8755Z" fill="black"/>
</svg>
