<svg width="62" height="39" viewBox="0 0 62 39" fill="none" xmlns="http://www.w3.org/2000/svg">
<path d="M43.4813 4.09131C46.9813 3.69793 50.4813 3.30455 53.9853 2.91852C47.6419 6.30035 41.2117 9.50185 34.6797 12.5122C33.7482 12.9428 34.0283 14.2472 34.8749 14.5604C37.9788 15.6903 41.0827 16.8203 44.1939 17.9463C36.4426 19.3601 28.7221 20.9557 21.0403 22.7478C20.2107 22.9446 19.9116 24.1896 20.7279 24.6229C26.9036 27.9382 32.7015 31.7664 38.1523 36.1478C25.8312 35.8067 13.6587 34.4519 1.41563 33.1063C0.855098 33.0465 0.689332 33.975 1.24741 34.0833C14.2404 36.7471 27.6282 37.69 40.8651 38.1376C41.6334 38.1622 42.2612 37.0912 41.5979 36.5198C36.1652 31.8361 30.3375 27.7217 24.1255 24.1614C32.265 22.3424 40.4475 20.7459 48.677 19.3792C49.8383 19.1849 49.7332 17.589 48.7587 17.2307C45.2031 15.9262 41.6367 14.637 38.0777 13.3438C44.8949 10.1247 51.6063 6.70719 58.2153 3.07992C57.1987 5.10389 56.2616 7.1705 55.3846 9.26162C55.1396 9.72266 54.9366 10.2273 54.7572 10.7761C54.3121 12.1367 56.3508 12.7206 56.8645 11.4178C57.0533 10.9396 57.2498 10.4761 57.4424 10.0053C57.934 9.13905 60.5854 3.08129 61.3701 1.59627C61.8176 0.753564 61.1508 -0.0898068 60.2443 0.0158842C54.5085 0.695049 48.7682 1.34825 43.0318 2.00879C41.672 2.16733 42.1509 4.23417 43.496 4.08347L43.4813 4.09131Z" fill="black"/>
</svg>
