<svg width="88" height="34" viewBox="0 0 88 34" fill="none" xmlns="http://www.w3.org/2000/svg">
<path d="M87.7136 32.9958C78.4726 31.3059 69.2011 29.9353 59.9235 28.5959C50.939 27.2954 41.5576 26.7736 32.8419 23.5029C28.6764 21.9454 24.5109 19.5001 21.3166 15.6687C20.6692 14.89 20.0401 14.0022 19.5331 13.0365C22.0801 12.3668 25.14 10.8483 25.8302 7.62427C26.5204 4.39248 24.1933 1.43325 21.7747 1.1529C18.8491 0.818039 16.8274 4.30682 16.522 7.67878C16.406 8.93256 16.522 10.124 16.7847 11.2532C11.7214 11.6582 6.5237 8.54319 3.29882 3.54365C5.6564 4.02647 7.97123 3.75391 10.1761 2.28987C10.8419 1.84598 10.3777 0.529903 9.67528 0.763527C7.10393 1.61236 4.82575 1.97837 2.21165 1.09839C2.12003 1.06724 2.02842 1.05945 1.94291 1.06724C1.86351 0.895913 1.778 0.716802 1.70471 0.537691C1.3016 -0.40459 -0.109286 -0.0463677 0.00676077 1.12954C0.415978 5.23352 1.60698 8.88584 2.95068 12.616C3.38433 13.8231 4.783 12.9431 4.57533 11.7438C4.33102 10.3732 4.08672 9.00265 3.8363 7.63206C7.51315 11.8217 12.5154 14.0255 17.5115 13.4181C18.4093 15.474 19.7897 17.2573 21.2189 18.7058C28.5542 26.135 38.3815 27.6692 47.3904 28.9074C60.7785 30.753 74.1728 32.6921 87.6036 34.0004C88.0495 34.0471 88.1595 33.0814 87.7075 32.9958H87.7136ZM18.6781 6.65863C19.4721 3.92523 21.3471 2.67145 23.1306 4.80521C24.9201 6.96234 23.3016 8.66779 21.5548 9.71131C20.6264 10.2642 19.6675 10.6614 18.6903 10.9261C18.3177 9.58671 18.2444 8.14603 18.6781 6.65863Z" fill="black"/>
</svg>
