 <svg
                                              className="text-black w-12 h-12"
                                              viewBox="0 0 42 36"
                                              fill="black"
                                              xmlns="http://www.w3.org/2000/svg"
                                            >
                                              <path
                                                d="M41.4886 17.7437C41.5504 17.9075 41.5504 18.0893 41.4886 18.2549C40.4008 21.1801 38.732 23.8065 36.5248 26.0567C36.3871 26.1971 36.207 26.2673 36.0251 26.2673C35.845 26.2673 35.6631 26.1971 35.5253 26.0567C35.2498 25.7758 35.2498 25.3204 35.5253 25.0378C37.5243 22.9983 39.0536 20.6312 40.0709 18.001C37.0017 10.1168 29.3871 4.83898 21.0365 4.83898C18.4283 4.83898 15.8906 5.3304 13.4996 6.30067C13.1376 6.44287 12.7262 6.26647 12.5814 5.89745C12.4383 5.52843 12.6149 5.10902 12.9769 4.96142C15.5357 3.92456 18.2481 3.39895 21.0364 3.39895C30.0602 3.39895 38.2788 9.16294 41.4889 17.7458L41.4886 17.7437ZM29.1977 20.4186C29.2471 20.4294 29.2948 20.4348 29.3443 20.4348C29.671 20.4348 29.9659 20.2026 30.0347 19.8624C30.1583 19.2683 30.2201 18.6419 30.2201 18.0011C30.2201 12.8403 26.1003 8.64081 21.0377 8.64081C19.9517 8.64081 18.8869 8.83522 17.8679 9.21863C17.5024 9.35724 17.3152 9.76945 17.4512 10.1439C17.5872 10.5147 17.9933 10.7073 18.3589 10.5687C19.2188 10.2447 20.1194 10.0809 21.0377 10.0809C25.3218 10.0809 28.8079 13.6342 28.8079 18.0015C28.8079 18.5434 28.7567 19.0708 28.6525 19.5676C28.573 19.9564 28.8167 20.338 29.1981 20.4191L29.1977 20.4186ZM41.2747 34.7327C41.5714 34.992 41.605 35.4474 41.3507 35.748C41.2112 35.9136 41.0134 36 40.8138 36C40.6514 36 40.4871 35.9424 40.353 35.8272L32.7152 29.1545C29.1976 31.4028 25.1747 32.6017 21.0338 32.6017C12.01 32.6017 3.79141 26.8377 0.581267 18.2548C0.51946 18.091 0.51946 17.9074 0.581267 17.7418C2.09642 13.7006 4.70816 10.2478 8.14303 7.68474L0.796904 1.26546C0.500234 1.00625 0.466681 0.550815 0.72097 0.25022C0.975259 -0.0521961 1.42028 -0.0827994 1.71692 0.171013L15.0652 11.834L41.2712 34.7314L41.2747 34.7327ZM14.7066 13.4178C13.7742 14.7444 13.2657 16.3465 13.2657 17.999C13.2657 22.3661 16.7515 25.9197 21.0358 25.9197C23.0701 25.9197 25.0055 25.1096 26.4448 23.6731L14.7066 13.4178ZM31.5905 28.1697L27.5131 24.6073C25.8037 26.3588 23.485 27.3596 21.0358 27.3596C15.9731 27.3596 11.8534 23.16 11.8534 17.9994C11.8534 16.0049 12.5103 14.0914 13.6581 12.5017L9.24695 8.64774C5.97297 11.0131 3.47267 14.226 2.00344 17.9992C5.07082 25.8835 12.6854 31.1613 21.0378 31.1613C24.7639 31.1613 28.3894 30.1227 31.5927 28.1695L31.5905 28.1697Z"
                                                fill="black"
                                              ></path>
                                            </svg>