<svg width="71" height="49" viewBox="0 0 71 49" fill="none" xmlns="http://www.w3.org/2000/svg">
    <path d="M64.5 1H6.5C3.46243 1 1 3.46243 1 6.5V42.5C1 45.5376 3.46243 48 6.5 48H64.5C67.5376 48 70 45.5376 70 42.5V6.5C70 3.46243 67.5376 1 64.5 1Z" fill="#1F72CD" stroke="#D9D9D9"></path>
    <path fill-rule="evenodd" clip-rule="evenodd" d="M7.0493 0.5L0.5 14.9935H8.3405L9.3125 12.6826H11.5342L12.5062 14.9935H21.1364V13.2298L21.9054 14.9935H26.3696L27.1386 13.1925V14.9935H45.087L47.2695 12.7426L49.313 14.9935L58.5317 15.0121L51.9617 7.7872L58.5317 0.5H49.456L47.3315 2.7093L45.3523 0.5H25.8268L24.1501 4.2409L22.4341 0.5H14.61V2.2037L13.7396 0.5H7.0493ZM33.8516 2.5581H44.1584L47.3108 5.9633L50.5648 2.5581H53.7172L48.9275 7.7852L53.7172 12.952H50.4218L47.2695 9.5073L43.9989 12.952H33.8516V2.5581ZM36.3968 6.6099V4.7114V4.7096H42.828L45.6342 7.7458L42.7036 10.7986H36.3968V8.726H42.0197V6.6099H36.3968ZM8.5664 2.5581H12.3883L16.7324 12.3862V2.5581H20.9191L24.2745 9.6048L27.3668 2.5581H31.5326V12.9581H28.9978L28.9771 4.8087L25.2817 12.9581H23.0142L19.2981 4.8087V12.9581H14.0836L13.095 10.6266H7.754L6.7675 12.9561H3.97358L8.5664 2.5581ZM8.666 8.4712L10.4256 4.3177L12.1832 8.4712H8.666Z" fill="white" transform="translate(6 17)"></path>
</svg>