<svg width="71" height="49" viewBox="0 0 71 49" fill="none" xmlns="http://www.w3.org/2000/svg">
    <path d="M64.5 1H6.5C3.46243 1 1 3.46243 1 6.5V42.5C1 45.5376 3.46243 48 6.5 48H64.5C67.5376 48 70 45.5376 70 42.5V6.5C70 3.46243 67.5376 1 64.5 1Z" fill="white" stroke="#D9D9D9"></path>

    <circle cx="30" cy="24.5" r="10.5" fill="#ED0006"></circle>

    <circle cx="41" cy="24.5" r="10.5" fill="#F9A000"></circle>

    <path d="M36 14C38.9344 16.5323 40.7951 20.3003 40.7951 24.5079C40.7951 28.7155 38.9344 32.4835 36 35.0157C33.0657 32.4835 31.2051 28.7155 31.2051 24.5079C31.2051 20.3003 33.0657 16.5323 36 14Z" fill="#FF5E00"></path>
</svg>