<?xml version="1.0" encoding="UTF-8"?>
<svg version="1.1" xmlns="http://www.w3.org/2000/svg" width="512" height="512">
<path d="M0 0 C1.26811523 -0.01260864 2.53623047 -0.02521729 3.84277344 -0.03820801 C5.22331295 -0.03104817 6.60384739 -0.02284418 7.984375 -0.01367188 C9.40397406 -0.0163675 10.82357131 -0.02025051 12.24316406 -0.02526855 C15.21567394 -0.03116045 18.18770241 -0.02261142 21.16015625 -0.00390625 C24.96696287 0.01888413 28.77264149 0.00575925 32.57940674 -0.01819611 C35.51001456 -0.03266301 38.44035574 -0.02804423 41.37097168 -0.01768494 C42.77437474 -0.01502007 44.17780215 -0.01827905 45.58117676 -0.02760315 C47.54369635 -0.03778128 49.50630102 -0.01951228 51.46875 0 C52.58475586 0.00318237 53.70076172 0.00636475 54.85058594 0.00964355 C58.39113175 0.63325561 59.57706018 1.69014985 61.734375 4.51757812 C62.18847656 7.35839844 62.18847656 7.35839844 62.125 10.59570312 C62.10566406 12.3359375 62.10566406 12.3359375 62.0859375 14.11132812 C62.03566406 15.92117187 62.03566406 15.92117187 61.984375 17.76757812 C61.96632813 18.98960937 61.94828125 20.21164063 61.9296875 21.47070312 C61.882556 24.48711891 61.81676913 27.50195304 61.734375 30.51757812 C62.89054321 30.54730713 62.89054321 30.54730713 64.07006836 30.57763672 C67.60431349 30.67362267 71.13802617 30.78300142 74.671875 30.89257812 C75.88423828 30.92351562 77.09660156 30.95445312 78.34570312 30.98632812 C85.04512232 31.20419542 91.30384523 31.54617484 97.734375 33.51757812 C100.40016462 37.51626256 100.01793705 41.01569672 100.00180054 45.65904236 C100.00633165 46.60616752 100.01086276 47.55329268 100.01553118 48.5291186 C100.02823569 51.71664563 100.02655092 54.90400312 100.02490234 58.09155273 C100.03088377 60.37119264 100.03768842 62.65083051 100.04525757 64.9304657 C100.06296289 71.13284894 100.06761482 77.33517704 100.06888914 83.53758311 C100.07078523 88.70933066 100.07813932 93.88106528 100.08523333 99.05280787 C100.10060009 110.55309278 100.1065697 122.05334613 100.10522263 133.55363982 C100.10514272 134.24387569 100.1050628 134.93411156 100.10498047 135.64526367 C100.10489871 136.33634055 100.10481695 137.02741743 100.10473271 137.73943604 C100.10391954 148.94309114 100.12306413 160.14661189 100.1512572 171.35022812 C100.17996603 182.84936342 100.19343211 194.34841579 100.19206965 205.84758955 C100.19155874 212.30542069 100.19731319 218.76309979 100.21842575 225.22089958 C100.23773253 231.2923266 100.23798445 237.36345536 100.22339249 243.43489265 C100.22129395 245.66661131 100.22606694 247.89834827 100.2381134 250.1300354 C100.25346399 253.17008879 100.24432514 256.20910059 100.22885132 259.24913025 C100.24428201 260.58263367 100.24428201 260.58263367 100.26002443 261.94307655 C100.19284087 267.89083029 100.19284087 267.89083029 97.88196754 271.04992008 C91.80132437 275.20541265 82.86004139 273.51123199 75.859375 273.26757812 C75.19575958 273.24457642 74.53214417 273.22157471 73.84841919 273.19787598 C49.23869716 272.30505644 24.51901883 269.36957271 1.734375 259.51757812 C-13.26759162 253.03478558 -26.24486525 249.71039335 -42.32421875 255.26367188 C-49.74345324 258.42645311 -54.15742502 263.18828652 -58.8203125 269.66210938 C-60.265625 271.51757812 -60.265625 271.51757812 -62.265625 272.51757812 C-63.78061957 272.63248353 -65.30041519 272.68700075 -66.81958008 272.71044922 C-67.76428665 272.72651215 -68.70899323 272.74257507 -69.68232727 272.75912476 C-74.00476393 272.80355075 -78.32704667 272.84463846 -82.6496582 272.86767578 C-84.93003543 272.88423909 -87.21036066 272.91153378 -89.49047852 272.94970703 C-92.7764787 273.00444593 -96.06126166 273.02634569 -99.34765625 273.04101562 C-100.36551712 273.063685 -101.38337799 273.08635437 -102.43208313 273.10971069 C-109.53455327 273.08849598 -109.53455327 273.08849598 -113.34375 270.11376953 C-113.97796875 269.25702637 -114.6121875 268.4002832 -115.265625 267.51757812 C-115.81605469 266.83695312 -116.36648437 266.15632813 -116.93359375 265.45507812 C-117.43503906 264.81570313 -117.93648437 264.17632812 -118.453125 263.51757812 C-124.72368697 256.29280021 -133.86745389 252.98964345 -143.23046875 252.29882812 C-154.12628497 251.98788926 -163.13339646 254.44020636 -172.953125 258.89257812 C-198.78952882 270.56973677 -242.77096249 280.84612433 -270.265625 271.51757812 C-272.93141462 267.51889369 -272.54918705 264.01945953 -272.53305054 259.37611389 C-272.53758165 258.42898873 -272.54211276 257.48186357 -272.54678118 256.50603765 C-272.55948569 253.31851062 -272.55780092 250.13115313 -272.55615234 246.94360352 C-272.56213377 244.66396361 -272.56893842 242.38432574 -272.57650757 240.10469055 C-272.59421289 233.90230731 -272.59886482 227.69997921 -272.60013914 221.49757314 C-272.60203523 216.32582559 -272.60938932 211.15409097 -272.61648333 205.98234838 C-272.63185009 194.48206347 -272.6378197 182.98181012 -272.63647263 171.48151643 C-272.63635276 170.44616262 -272.63635276 170.44616262 -272.63623047 169.38989258 C-272.63614871 168.6988157 -272.63606695 168.00773882 -272.63598271 167.29572021 C-272.63516954 156.09206511 -272.65431413 144.88854436 -272.6825072 133.68492813 C-272.71121603 122.18579283 -272.72468211 110.68674046 -272.72331965 99.1875667 C-272.72280874 92.72973556 -272.72856319 86.27205646 -272.74967575 79.81425667 C-272.76898253 73.74282965 -272.76923445 67.67170089 -272.75464249 61.6002636 C-272.75254395 59.36854494 -272.75731694 57.13680798 -272.7693634 54.90512085 C-272.78471399 51.86506746 -272.77557514 48.82605566 -272.76010132 45.786026 C-272.77038844 44.89702372 -272.78067557 44.00802144 -272.79127443 43.0920797 C-272.7240305 37.13898126 -272.7240305 37.13898126 -270.39658546 33.98395443 C-265.17162363 30.38850517 -257.8329446 31.2688861 -251.703125 31.20507812 C-250.30416992 31.16157227 -250.30416992 31.16157227 -248.87695312 31.1171875 C-244.58495276 31.07741843 -241.95624607 31.13197414 -238.15234375 33.25585938 C-236.06597905 35.75690526 -235.58555129 36.80127361 -235.640625 40.01757812 C-235.62773437 40.77039063 -235.61484375 41.52320313 -235.6015625 42.29882812 C-236.265625 44.51757812 -236.265625 44.51757812 -241.265625 48.51757812 C-246.215625 48.51757812 -251.165625 48.51757812 -256.265625 48.51757812 C-256.265625 117.15757812 -256.265625 185.79757812 -256.265625 256.51757812 C-253.955625 256.18757812 -251.645625 255.85757813 -249.265625 255.51757812 C-247.40144299 255.36379637 -245.53532525 255.23168887 -243.66796875 255.12304688 C-220.19373505 253.62697904 -198.32565405 250.14207051 -176.640625 240.89257812 C-158.92001904 233.38714434 -141.4959417 232.35817196 -123.265625 238.51757812 C-115.77194157 241.71992806 -107.28036008 246.46238211 -102.984375 253.66601562 C-100.45745098 256.38820195 -97.85086361 256.11147813 -94.265625 256.51757812 C-94.20932808 230.46577105 -94.19868995 204.41429067 -94.24227905 178.3624506 C-94.26145633 166.26584844 -94.26574115 154.16958455 -94.23486328 142.07299805 C-94.20798522 131.52851338 -94.20915518 120.98446692 -94.24388409 110.43999857 C-94.26129391 104.85756797 -94.26474082 99.27592228 -94.23458862 93.69352913 C-94.20663424 88.43594273 -94.2162645 83.17974721 -94.25436211 77.9222374 C-94.26176291 75.99578963 -94.25558975 74.06923291 -94.23460579 72.14288521 C-93.79896779 60.2072753 -93.79896779 60.2072753 -99.13012695 49.96751404 C-101.17980161 48.06590557 -101.17980161 48.06590557 -103.265625 46.51757812 C-103.81135666 46.04842515 -104.35708832 45.57927217 -104.9193573 45.09590244 C-112.95804667 38.45891786 -122.15577577 34.7425665 -132.01171875 31.65820312 C-132.81738281 31.40554687 -133.62304688 31.15289062 -134.453125 30.89257812 C-135.14792969 30.6940625 -135.84273437 30.49554688 -136.55859375 30.29101562 C-138.265625 29.51757812 -138.265625 29.51757812 -140.265625 26.51757812 C-140.91507149 19.69838993 -140.91507149 19.69838993 -138.890625 16.01757812 C-133.90995912 13.17148334 -128.84620018 13.9226024 -123.40234375 15.17773438 C-109.43318932 19.45174056 -97.43968869 27.11281005 -87.265625 37.51757812 C-83.82883854 36.04246304 -81.70461699 34.09086744 -79.078125 31.45507812 C-63.25399598 17.02719578 -43.65904258 12.38840849 -22.73535156 13.28808594 C-18.80275101 13.65351145 -15.09205452 14.55130804 -11.265625 15.51757812 C-11.23984375 14.76992187 -11.2140625 14.02226562 -11.1875 13.25195312 C-11.13078125 12.26710937 -11.0740625 11.28226563 -11.015625 10.26757812 C-10.96921875 9.29304687 -10.9228125 8.31851563 -10.875 7.31445312 C-9.54043743 1.18915311 -5.81466891 0.01658096 0 0 Z M5.734375 16.51757812 C5.734375 48.52757812 5.734375 80.53757812 5.734375 113.51757812 C9.73477114 110.31726122 12.32692831 107.76575736 15.421875 103.83007812 C19.52672473 98.62140326 19.52672473 98.62140326 21.734375 97.51757812 C27.41865873 96.95846825 27.41865873 96.95846825 29.734375 97.51757812 C32.16796875 99.67773438 32.16796875 99.67773438 34.734375 102.51757812 C35.60578125 103.47277344 36.4771875 104.42796875 37.375 105.41210938 C39.12568197 107.36983307 40.87567359 109.32817432 42.625 111.28710938 C43.32109375 112.02316406 44.0171875 112.75921875 44.734375 113.51757812 C45.064375 113.51757812 45.394375 113.51757812 45.734375 113.51757812 C45.734375 81.50757813 45.734375 49.49757813 45.734375 16.51757812 C32.534375 16.51757812 19.334375 16.51757812 5.734375 16.51757812 Z M-76.265625 52.51757812 C-78.76462282 56.26607485 -78.53881325 59.17101018 -78.50613403 63.50907898 C-78.50784288 64.33243628 -78.50955173 65.15579358 -78.51131237 66.0041011 C-78.51461572 68.77259703 -78.50358969 71.54085244 -78.49267578 74.30932617 C-78.49211185 76.290039 -78.49242787 78.27075226 -78.49356079 80.25146484 C-78.49413601 85.63751547 -78.48235435 91.02347752 -78.46841288 96.40950751 C-78.45593367 102.03494811 -78.45473724 107.6603906 -78.45236206 113.2858429 C-78.44613901 123.94242719 -78.42971705 134.59897059 -78.40966308 145.25553685 C-78.38732971 157.38596242 -78.3763171 169.51638992 -78.36627221 181.64683092 C-78.34535154 206.60376935 -78.31015956 231.56067145 -78.265625 256.51757812 C-73.50000315 256.95050287 -73.50000315 256.95050287 -69.4375 255.01367188 C-68.96828125 254.33433594 -68.4990625 253.655 -68.015625 252.95507812 C-61.77761429 245.07034423 -52.68650934 240.60105836 -43.265625 237.51757812 C-42.585 237.29199219 -41.904375 237.06640625 -41.203125 236.83398438 C-24.49961574 232.24684642 -7.29650951 236.68157371 8.046875 243.45507812 C32.16464206 254.09628118 57.5413843 255.42620351 83.734375 256.51757812 C83.734375 187.87757813 83.734375 119.23757813 83.734375 48.51757812 C72.844375 48.02257812 72.844375 48.02257812 61.734375 47.51757812 C61.71979248 50.31911377 61.70520996 53.12064941 61.69018555 56.00708008 C61.6399054 65.25124019 61.57332217 74.49523068 61.49866009 83.73922443 C61.45388433 89.34525943 61.41464415 94.95122053 61.38793945 100.55737305 C61.36197832 105.96507465 61.32162714 111.37249299 61.27118874 116.78001976 C61.25447126 118.84569978 61.24298749 120.91142885 61.23676109 122.97716713 C61.22717299 125.86504619 61.19917755 128.75219253 61.16674805 131.63989258 C61.16818314 132.49872543 61.16961823 133.35755829 61.1710968 134.24241638 C61.07839603 140.05844034 61.07839603 140.05844034 59.45164204 142.22954082 C57.07751772 144.01025437 54.76375435 143.9750191 51.8671875 144.11132812 C48.55527114 143.18932943 47.02672729 141.03265523 44.734375 138.51757812 C43.76749209 137.48840119 42.80002436 136.45977343 41.83203125 135.43164062 C40.81889155 134.33659942 39.80720577 133.2402115 38.796875 132.14257812 C38.27125977 131.5725708 37.74564453 131.00256348 37.20410156 130.4152832 C33.62550359 126.52108971 30.12986952 122.57330769 26.734375 118.51757812 C22.91808668 120.06330589 20.76411757 122.40529057 18.046875 125.45507812 C17.17675781 126.43089844 16.30664062 127.40671875 15.41015625 128.41210938 C12.01113003 132.31845294 8.76468622 136.34365006 5.546875 140.40039062 C3.734375 142.51757812 3.734375 142.51757812 1.734375 143.51757812 C-5.66225509 143.98720543 -5.66225509 143.98720543 -7.86399555 142.2735014 C-9.63024885 140.06078728 -9.64788639 138.90378526 -9.66435242 136.09468079 C-9.67689056 135.19024231 -9.68942871 134.28580383 -9.7023468 133.35395813 C-9.70091171 132.36421494 -9.69947662 131.37447174 -9.69799805 130.35473633 C-9.71328552 128.78863113 -9.71328552 128.78863113 -9.72888184 127.19088745 C-9.7591219 123.73332429 -9.76829475 120.27603766 -9.77734375 116.81835938 C-9.79418224 114.42367117 -9.81233134 112.02899186 -9.83174133 109.63432312 C-9.87933741 103.32639339 -9.90908471 97.01849966 -9.93518066 90.71044922 C-9.96493769 84.27564378 -10.01148466 77.84096254 -10.05664062 71.40625 C-10.14278308 58.77676012 -10.21064965 46.14724014 -10.265625 33.51757812 C-12.17222407 33.02260961 -14.08011184 32.53260348 -15.98852539 32.04467773 C-17.05083878 31.7712706 -18.11315216 31.49786346 -19.20765686 31.21617126 C-23.08960769 30.32933919 -26.73426579 30.0185116 -30.703125 30.08007812 C-31.78243286 30.09252563 -31.78243286 30.09252563 -32.88354492 30.10522461 C-50.53428266 30.65503697 -64.33076796 40.3105908 -76.265625 52.51757812 Z " fill="#000000" transform="translate(342.265625,159.482421875)"/>
<path d="M0 0 C0.66 -0.0103125 1.32 -0.020625 2 -0.03125 C5.03882295 0.77593735 6.09371219 1.99300191 8 4.5 C8.38970343 7.50319946 8.53449656 10.13847888 8.49879456 13.14083862 C8.50417911 14.02207024 8.50956366 14.90330185 8.51511139 15.81123745 C8.5284074 18.77011008 8.51322208 21.72815684 8.49829102 24.68701172 C8.50211312 26.80592226 8.50773122 28.92483022 8.51501465 31.04373169 C8.52698042 35.6098457 8.52646407 40.17572984 8.51642036 44.74184799 C8.50088572 51.96056169 8.51451971 59.17903833 8.53245544 66.3977356 C8.56330425 80.41964675 8.56477557 94.44148587 8.56280518 108.46342468 C8.56141323 126.30465931 8.57172699 144.14583847 8.6113829 161.98703206 C8.62633287 169.16413871 8.62603401 176.34103637 8.61390507 183.51814628 C8.6091984 187.98273381 8.61670748 192.44724114 8.62744904 196.91181564 C8.62985781 198.98304807 8.6271106 201.05429385 8.61884117 203.12551117 C8.60822978 205.95228439 8.6159642 208.77844083 8.62818909 211.60519409 C8.616825 212.83555305 8.616825 212.83555305 8.60523134 214.09076774 C8.64929661 218.89394909 9.11483206 222.45817186 12 226.5 C15.56370034 227.87553574 18.81806506 227.48630833 22.56539917 227.05079651 C23.67282471 226.92595886 24.78025024 226.80112122 25.92123413 226.67250061 C27.72921982 226.45671608 27.72921982 226.45671608 29.57373047 226.23657227 C30.85068787 226.09041473 32.12764526 225.9442572 33.44329834 225.79367065 C36.21626145 225.47622627 38.98859925 225.15391164 41.76055527 224.82779121 C46.14742876 224.31173542 50.53553157 223.80673045 54.92385864 223.3032074 C61.86819474 222.50510068 68.81167106 221.69977464 75.75480473 220.89128011 C88.17969321 219.44450856 100.60554866 218.00613322 113.03238213 216.57616466 C117.39050105 216.0743315 121.74808073 215.56810778 126.10527396 215.05830204 C128.1657817 214.81776266 130.22648786 214.5790153 132.28729248 214.34103394 C134.79445318 214.05142459 137.30128602 213.75895616 139.80770874 213.46302795 C159.47206662 211.20772232 159.47206662 211.20772232 167.65625 217.5625 C170.93036512 220.4899441 174.07031377 223.48854405 177.04296875 226.72265625 C180.68146296 230.02707714 184.68299689 229.62949782 189.43334961 229.64526367 C190.73827866 229.65164352 192.0432077 229.65802338 193.38768005 229.66459656 C194.80923424 229.66612525 196.23078893 229.6672392 197.65234375 229.66796875 C199.1143853 229.67118341 200.57642653 229.67454764 202.03846741 229.67805481 C205.10076646 229.68403724 208.16303732 229.68589559 211.2253418 229.68530273 C215.14383504 229.68520109 219.06214718 229.69885954 222.9805975 229.71607494 C225.99952521 229.72720771 229.01840929 229.72922156 232.03735542 229.72869301 C233.48180326 229.72987096 234.92625229 229.73428234 236.37067986 229.74202538 C238.392848 229.75185174 240.41506943 229.74767614 242.43725586 229.74291992 C244.16122841 229.74505745 244.16122841 229.74505745 245.92002869 229.74723816 C251.96172358 229.26225393 254.79006303 227.00484251 258.8125 222.625 C263.85334073 217.41888581 268.71856821 213.82158329 276 212.5 C289.44659598 212.53491427 302.96244292 214.67623556 316.28738785 216.2596035 C320.33070876 216.73911375 324.37475682 217.21192712 328.41915894 217.6822052 C339.90570944 219.01886642 351.39145509 220.36210409 362.875 221.72436523 C369.24725268 222.48021531 375.62054177 223.22657994 381.99514091 223.96238595 C385.35618969 224.35077317 388.71649856 224.74408223 392.07556534 225.14928246 C395.80965442 225.59759124 399.54530161 226.02952938 403.28173828 226.45776367 C404.38517075 226.59429352 405.48860321 226.73082336 406.62547302 226.87149048 C414.05138854 227.81667809 414.05138854 227.81667809 421 225.5 C423.44712105 221.10203549 423.27929814 216.62243059 423.2515564 211.72544861 C423.25452654 210.84195144 423.25749667 209.95845427 423.26055682 209.04818445 C423.26819503 206.0879652 423.26170356 203.12794446 423.25537109 200.16772461 C423.258121 198.04542405 423.2618009 195.92312451 423.26634216 193.80082703 C423.2744546 189.23096768 423.27662254 184.66115727 423.27439499 180.09129143 C423.27156449 172.86889005 423.28590318 165.64658669 423.30337524 158.42420959 C423.35043017 137.88690659 423.37435189 117.34961037 423.38085938 96.81225586 C423.38460519 85.46949127 423.40259435 74.12683764 423.43595374 62.78412062 C423.45621408 55.60058236 423.45851559 48.41732935 423.44767356 41.23377407 C423.44507301 36.77033771 423.45903799 32.30706871 423.47775459 27.84367561 C423.4830928 25.76999648 423.48155217 23.69628682 423.47271919 21.62261963 C423.46165226 18.79719913 423.47496617 15.97291803 423.49447632 13.14756775 C423.48535166 12.32218488 423.476227 11.49680201 423.46682584 10.64640754 C423.51586512 7.01056849 423.67253151 4.93063775 425.90659523 1.99273014 C428.17364242 0.37618196 429.24662287 -0.04302152 432 0 C432.99 -0.01546875 432.99 -0.01546875 434 -0.03125 C437.04948117 0.77876844 438.09232363 1.97615167 440 4.5 C440.39272035 7.58371812 440.54028293 10.3095239 440.50793457 13.39312744 C440.51729451 14.75573547 440.51729451 14.75573547 440.52684355 16.14587092 C440.54282733 19.19679339 440.53014794 22.24692285 440.51757812 25.29785156 C440.52299699 27.48248258 440.53011832 29.66710994 440.53881836 31.85173035 C440.55708681 37.79201459 440.54996839 43.7320216 440.53730202 49.67231083 C440.52718751 55.88658976 440.53656387 62.10084467 440.54284668 68.31512451 C440.55059658 79.42542678 440.53814624 90.53561989 440.51780933 101.64590058 C440.49995572 111.71077374 440.50302726 121.77546225 440.52148438 131.84033203 C440.54283955 143.53212913 440.55084414 155.22381069 440.53903532 166.91562438 C440.53280208 173.10303793 440.53195979 179.29032443 440.54518127 185.4777298 C440.5567503 191.29887839 440.54869431 197.1196791 440.52560425 202.94079018 C440.52032187 205.07567836 440.52182284 207.21059589 440.53065491 209.34547234 C440.54161291 212.26368739 440.52784296 215.18079328 440.50793457 218.09893799 C440.5213189 219.36141338 440.5213189 219.36141338 440.53497362 220.64939332 C440.44561413 227.41932912 438.52010415 232.62417539 434.03515625 237.7421875 C427.17311386 243.42205625 421.21181421 245.83447337 412.1641655 245.3473053 C408.76201729 245.01822927 405.37145906 244.6300888 401.97802734 244.22070312 C399.99985205 243.99389301 398.02167675 243.76708297 396.04350114 243.54027557 C393.93072933 243.29617117 391.81855613 243.04738723 389.70649338 242.79722595 C385.29471436 242.27489646 380.88135933 241.76686425 376.46768188 241.26086426 C367.89800634 240.27651407 359.32992832 239.27869189 350.76207733 238.2786026 C339.8491717 237.00492627 328.9359171 235.73451774 318.02055132 234.48207617 C313.63579261 233.97844634 309.2520959 233.46659987 304.86904502 232.94832611 C302.79900302 232.70480753 300.72856269 232.46509382 298.65788269 232.22706604 C296.13718591 231.93726437 293.61716414 231.64150316 291.0980072 231.33860779 C289.42435341 231.14918358 289.42435341 231.14918358 287.71688843 230.95593262 C286.26958879 230.78667896 286.26958879 230.78667896 284.79305077 230.61400604 C280.25659716 230.42883822 277.04075539 230.6065057 273.54296875 233.609375 C272.76566406 234.48078125 271.98835938 235.3521875 271.1875 236.25 C265.93191851 242.13061715 261.0781318 246.00135448 253.09223938 246.97781372 C248.2414999 247.24201064 243.39149764 247.22287112 238.53515625 247.19921875 C236.73351064 247.20513677 234.93186897 247.21238729 233.13023376 247.22090149 C229.36534034 247.2327438 225.60103952 247.22613793 221.83618164 247.20678711 C217.03327984 247.18391179 212.23214869 247.21068445 207.42942142 247.25184917 C203.71191082 247.27753746 199.99481767 247.27481734 196.27725029 247.26395607 C194.5075768 247.26247849 192.73786985 247.2700531 190.96827888 247.28720665 C179.03514909 247.38411816 171.37127948 246.37067895 162.265625 237.98046875 C160.91087764 236.43931235 159.55672013 234.89763725 158.203125 233.35546875 C154.87029183 230.54856139 151.49142697 230.43744406 147.21532917 230.61679935 C146.2543592 230.73093394 145.29338923 230.84506853 144.30329895 230.96266174 C143.19186523 231.09038971 142.08043152 231.21811768 140.93531799 231.34971619 C139.73052292 231.49671463 138.52572784 231.64371307 137.28442383 231.79516602 C135.31886068 232.02446085 133.35329713 232.25375224 131.38771856 232.48291481 C129.28169798 232.73000285 127.1761944 232.98114275 125.0707798 233.23333931 C120.67043216 233.75986343 116.26847486 234.27192079 111.86613464 234.78147888 C99.34999872 236.23243371 86.83622338 237.70317024 74.32397461 239.18725586 C67.40812134 240.00741956 60.49099205 240.81584388 53.57233447 241.61201233 C49.20493862 242.11530649 44.83957003 242.63295308 40.47518027 243.16164982 C37.10578486 243.56553242 33.73403277 243.94818013 30.36254883 244.33422852 C28.57053795 244.55776253 28.57053795 244.55776253 26.74232483 244.78581238 C18.30511176 245.72214811 10.392386 245.73763061 2.6875 241.8125 C-2.40830373 237.42773865 -7.50155505 232.62668382 -8.18647838 225.58200347 C-8.26403859 223.20586389 -8.27608432 220.83711302 -8.26742554 218.45970154 C-8.27195665 217.5476195 -8.27648776 216.63553746 -8.28115618 215.69581658 C-8.293819 212.63887508 -8.29217861 209.58211131 -8.29052734 206.52514648 C-8.29651126 204.33388032 -8.30331649 202.14261626 -8.31088257 199.95135498 C-8.32855984 193.99908172 -8.33323857 188.04686594 -8.33451414 182.09456897 C-8.33641231 177.12900307 -8.34376858 172.1634506 -8.35085833 167.19788986 C-8.36621477 156.15638227 -8.37219565 145.11490156 -8.37084763 134.07338404 C-8.37076772 133.41116194 -8.3706878 132.74893983 -8.37060547 132.06665039 C-8.37052371 131.40362005 -8.37044195 130.7405897 -8.37035771 130.05746753 C-8.36954416 119.3033608 -8.38870085 108.54939391 -8.4168822 97.79532766 C-8.44559167 86.75265758 -8.45905714 75.71005915 -8.45769465 64.66735131 C-8.45718386 58.46776542 -8.46293212 52.26833793 -8.48405075 46.06878471 C-8.50335834 40.24191836 -8.50360894 34.41536278 -8.48901749 28.58848572 C-8.48691924 26.44706839 -8.49169026 24.30563198 -8.5037384 22.16424751 C-8.51909278 19.2469001 -8.50994795 16.33063757 -8.49447632 13.41331482 C-8.50476344 12.56069531 -8.51505057 11.70807581 -8.52564943 10.82961935 C-8.48220183 7.13712771 -8.35431144 4.96919407 -6.09409523 1.97612095 C-3.82789001 0.37868022 -2.74293191 -0.04285831 0 0 Z " fill="#000000" transform="translate(40,231.5)"/>
<path d="M0 0 C0.66 -0.0103125 1.32 -0.020625 2 -0.03125 C4.9609587 0.75525465 6.02278109 2.15327261 8 4.5 C9.20650356 7.1622463 10.25538867 9.73442125 11.234375 12.4765625 C11.51726379 13.24302094 11.80015259 14.00947937 12.09161377 14.79916382 C12.68490337 16.41271836 13.27292121 18.02821995 13.85595703 19.64550781 C14.7508282 22.12729689 15.66102336 24.6030269 16.57421875 27.078125 C17.14933226 28.64811002 17.72358146 30.21841199 18.296875 31.7890625 C18.56868591 32.53177399 18.84049683 33.27448547 19.12054443 34.03970337 C21 39.26463882 21 39.26463882 21 41.5 C21.95724976 41.73891968 21.95724976 41.73891968 22.93383789 41.98266602 C30.63541685 43.98478688 38.01265235 46.5870023 45.4375 49.4375 C47.17290039 50.08235352 47.17290039 50.08235352 48.94335938 50.74023438 C50.05388672 51.16498047 51.16441406 51.58972656 52.30859375 52.02734375 C53.30689209 52.40624756 54.30519043 52.78515137 55.33374023 53.17553711 C58.19458187 54.59665843 59.93703072 56.07673919 62 58.5 C62.53125 60.5 62.53125 60.5 62.5 62.5 C62.51546875 63.49 62.51546875 63.49 62.53125 64.5 C61.74474535 67.4609587 60.34672739 68.52278109 58 70.5 C55.3377537 71.70650356 52.76557875 72.75538867 50.0234375 73.734375 C49.25697906 74.01726379 48.49052063 74.30015259 47.70083618 74.59161377 C46.08728164 75.18490337 44.47178005 75.77292121 42.85449219 76.35595703 C40.37270311 77.2508282 37.8969731 78.16102336 35.421875 79.07421875 C33.85188998 79.64933226 32.28158801 80.22358146 30.7109375 80.796875 C29.96822601 81.06868591 29.22551453 81.34049683 28.46029663 81.62054443 C23.23536118 83.5 23.23536118 83.5 21 83.5 C20.84072021 84.1381665 20.68144043 84.77633301 20.51733398 85.43383789 C18.51521312 93.13541685 15.9129977 100.51265235 13.0625 107.9375 C12.41764648 109.67290039 12.41764648 109.67290039 11.75976562 111.44335938 C11.33501953 112.55388672 10.91027344 113.66441406 10.47265625 114.80859375 C10.09375244 115.80689209 9.71484863 116.80519043 9.32446289 117.83374023 C7.90334157 120.69458187 6.42326081 122.43703072 4 124.5 C2 125.03125 2 125.03125 0 125 C-0.99 125.01546875 -0.99 125.01546875 -2 125.03125 C-4.9609587 124.24474535 -6.02278109 122.84672739 -8 120.5 C-9.20650356 117.8377537 -10.25538867 115.26557875 -11.234375 112.5234375 C-11.65870819 111.37374985 -11.65870819 111.37374985 -12.09161377 110.20083618 C-12.68490337 108.58728164 -13.27292121 106.97178005 -13.85595703 105.35449219 C-14.7508282 102.87270311 -15.66102336 100.3969731 -16.57421875 97.921875 C-17.14933226 96.35188998 -17.72358146 94.78158801 -18.296875 93.2109375 C-18.70459137 92.09687027 -18.70459137 92.09687027 -19.12054443 90.96029663 C-21 85.73536118 -21 85.73536118 -21 83.5 C-21.56090332 83.34072021 -22.12180664 83.18144043 -22.69970703 83.01733398 C-30.20311406 80.83166364 -37.53694813 78.24647223 -44.875 75.5625 C-46.68871094 74.91764648 -46.68871094 74.91764648 -48.5390625 74.25976562 C-50.27929688 73.62264648 -50.27929688 73.62264648 -52.0546875 72.97265625 C-53.10124512 72.59375244 -54.14780273 72.21484863 -55.22607422 71.82446289 C-58.17253204 70.41762134 -59.9043424 68.98516786 -62 66.5 C-62.53125 64.5 -62.53125 64.5 -62.5 62.5 C-62.5103125 61.84 -62.520625 61.18 -62.53125 60.5 C-61.74474535 57.5390413 -60.34672739 56.47721891 -58 54.5 C-55.3377537 53.29349644 -52.76557875 52.24461133 -50.0234375 51.265625 C-48.87374985 50.84129181 -48.87374985 50.84129181 -47.70083618 50.40838623 C-46.08728164 49.81509663 -44.47178005 49.22707879 -42.85449219 48.64404297 C-40.37270311 47.7491718 -37.8969731 46.83897664 -35.421875 45.92578125 C-33.85188998 45.35066774 -32.28158801 44.77641854 -30.7109375 44.203125 C-29.59687027 43.79540863 -29.59687027 43.79540863 -28.46029663 43.37945557 C-23.23536118 41.5 -23.23536118 41.5 -21 41.5 C-20.84072021 40.93909668 -20.68144043 40.37819336 -20.51733398 39.80029297 C-18.33166364 32.29688594 -15.74647223 24.96305187 -13.0625 17.625 C-12.41764648 15.81128906 -12.41764648 15.81128906 -11.75976562 13.9609375 C-11.33501953 12.80078125 -10.91027344 11.640625 -10.47265625 10.4453125 C-10.09375244 9.39875488 -9.71484863 8.35219727 -9.32446289 7.27392578 C-7.28568278 3.0039498 -4.96813136 -0.07762705 0 0 Z M-1 34.5 C-2.1721449 37.45619219 -3.33677476 40.41528789 -4.5 43.375 C-4.83386719 44.21675781 -5.16773438 45.05851562 -5.51171875 45.92578125 C-5.82753906 46.73144531 -6.14335937 47.53710938 -6.46875 48.3671875 C-6.76201172 49.11081543 -7.05527344 49.85444336 -7.35742188 50.62060547 C-8.10783991 52.48437213 -8.10783991 52.48437213 -8 54.5 C-8.52207031 54.67015625 -9.04414063 54.8403125 -9.58203125 55.015625 C-15.7682136 57.05240658 -21.88858108 59.24962705 -28 61.5 C-28 62.16 -28 62.82 -28 63.5 C-25.04380781 64.6721449 -22.08471211 65.83677476 -19.125 67 C-18.28324219 67.33386719 -17.44148438 67.66773438 -16.57421875 68.01171875 C-15.36572266 68.48544922 -15.36572266 68.48544922 -14.1328125 68.96875 C-13.38918457 69.26201172 -12.64555664 69.55527344 -11.87939453 69.85742188 C-10.01562787 70.60783991 -10.01562787 70.60783991 -8 70.5 C-7.82984375 71.02207031 -7.6596875 71.54414063 -7.484375 72.08203125 C-5.44759342 78.2682136 -3.25037295 84.38858108 -1 90.5 C-0.34 90.5 0.32 90.5 1 90.5 C2.1721449 87.54380781 3.33677476 84.58471211 4.5 81.625 C4.83386719 80.78324219 5.16773438 79.94148438 5.51171875 79.07421875 C5.98544922 77.86572266 5.98544922 77.86572266 6.46875 76.6328125 C6.76201172 75.88918457 7.05527344 75.14555664 7.35742188 74.37939453 C8.10783991 72.51562787 8.10783991 72.51562787 8 70.5 C8.52207031 70.32984375 9.04414063 70.1596875 9.58203125 69.984375 C15.7682136 67.94759342 21.88858108 65.75037295 28 63.5 C28 62.84 28 62.18 28 61.5 C25.04380781 60.3278551 22.08471211 59.16322524 19.125 58 C18.28324219 57.66613281 17.44148438 57.33226562 16.57421875 56.98828125 C15.76855469 56.67246094 14.96289062 56.35664063 14.1328125 56.03125 C13.38918457 55.73798828 12.64555664 55.44472656 11.87939453 55.14257812 C10.01562787 54.39216009 10.01562787 54.39216009 8 54.5 C7.82984375 53.97792969 7.6596875 53.45585937 7.484375 52.91796875 C5.44759342 46.7317864 3.25037295 40.61141892 1 34.5 C0.34 34.5 -0.32 34.5 -1 34.5 Z " fill="#000000" transform="translate(142,91.5)"/>
<path d="M0 0 C0.66 -0.0103125 1.32 -0.020625 2 -0.03125 C4.9609587 0.75525465 6.02278109 2.15327261 8 4.5 C9.20650356 7.1622463 10.25538867 9.73442125 11.234375 12.4765625 C11.51726379 13.24302094 11.80015259 14.00947937 12.09161377 14.79916382 C12.68490337 16.41271836 13.27292121 18.02821995 13.85595703 19.64550781 C14.7508282 22.12729689 15.66102336 24.6030269 16.57421875 27.078125 C17.14933226 28.64811002 17.72358146 30.21841199 18.296875 31.7890625 C18.56868591 32.53177399 18.84049683 33.27448547 19.12054443 34.03970337 C21 39.26463882 21 39.26463882 21 41.5 C21.95724976 41.73891968 21.95724976 41.73891968 22.93383789 41.98266602 C30.63541685 43.98478688 38.01265235 46.5870023 45.4375 49.4375 C47.17290039 50.08235352 47.17290039 50.08235352 48.94335938 50.74023438 C50.05388672 51.16498047 51.16441406 51.58972656 52.30859375 52.02734375 C53.30689209 52.40624756 54.30519043 52.78515137 55.33374023 53.17553711 C58.19458187 54.59665843 59.93703072 56.07673919 62 58.5 C62.53125 60.5 62.53125 60.5 62.5 62.5 C62.51546875 63.49 62.51546875 63.49 62.53125 64.5 C61.74474535 67.4609587 60.34672739 68.52278109 58 70.5 C55.3377537 71.70650356 52.76557875 72.75538867 50.0234375 73.734375 C49.25697906 74.01726379 48.49052063 74.30015259 47.70083618 74.59161377 C46.08728164 75.18490337 44.47178005 75.77292121 42.85449219 76.35595703 C40.37270311 77.2508282 37.8969731 78.16102336 35.421875 79.07421875 C33.85188998 79.64933226 32.28158801 80.22358146 30.7109375 80.796875 C29.96822601 81.06868591 29.22551453 81.34049683 28.46029663 81.62054443 C23.23536118 83.5 23.23536118 83.5 21 83.5 C20.84072021 84.1381665 20.68144043 84.77633301 20.51733398 85.43383789 C18.51521312 93.13541685 15.9129977 100.51265235 13.0625 107.9375 C12.41764648 109.67290039 12.41764648 109.67290039 11.75976562 111.44335938 C11.33501953 112.55388672 10.91027344 113.66441406 10.47265625 114.80859375 C10.09375244 115.80689209 9.71484863 116.80519043 9.32446289 117.83374023 C7.90334157 120.69458187 6.42326081 122.43703072 4 124.5 C2 125.03125 2 125.03125 0 125 C-0.99 125.01546875 -0.99 125.01546875 -2 125.03125 C-4.9609587 124.24474535 -6.02278109 122.84672739 -8 120.5 C-9.20650356 117.8377537 -10.25538867 115.26557875 -11.234375 112.5234375 C-11.65870819 111.37374985 -11.65870819 111.37374985 -12.09161377 110.20083618 C-12.68490337 108.58728164 -13.27292121 106.97178005 -13.85595703 105.35449219 C-14.7508282 102.87270311 -15.66102336 100.3969731 -16.57421875 97.921875 C-17.14933226 96.35188998 -17.72358146 94.78158801 -18.296875 93.2109375 C-18.70459137 92.09687027 -18.70459137 92.09687027 -19.12054443 90.96029663 C-21 85.73536118 -21 85.73536118 -21 83.5 C-21.56090332 83.34072021 -22.12180664 83.18144043 -22.69970703 83.01733398 C-30.20311406 80.83166364 -37.53694813 78.24647223 -44.875 75.5625 C-46.68871094 74.91764648 -46.68871094 74.91764648 -48.5390625 74.25976562 C-50.27929688 73.62264648 -50.27929688 73.62264648 -52.0546875 72.97265625 C-53.10124512 72.59375244 -54.14780273 72.21484863 -55.22607422 71.82446289 C-58.17253204 70.41762134 -59.9043424 68.98516786 -62 66.5 C-62.53125 64.5 -62.53125 64.5 -62.5 62.5 C-62.5103125 61.84 -62.520625 61.18 -62.53125 60.5 C-61.74474535 57.5390413 -60.34672739 56.47721891 -58 54.5 C-55.3377537 53.29349644 -52.76557875 52.24461133 -50.0234375 51.265625 C-48.87374985 50.84129181 -48.87374985 50.84129181 -47.70083618 50.40838623 C-46.08728164 49.81509663 -44.47178005 49.22707879 -42.85449219 48.64404297 C-40.37270311 47.7491718 -37.8969731 46.83897664 -35.421875 45.92578125 C-33.85188998 45.35066774 -32.28158801 44.77641854 -30.7109375 44.203125 C-29.59687027 43.79540863 -29.59687027 43.79540863 -28.46029663 43.37945557 C-23.23536118 41.5 -23.23536118 41.5 -21 41.5 C-20.84072021 40.93909668 -20.68144043 40.37819336 -20.51733398 39.80029297 C-18.33166364 32.29688594 -15.74647223 24.96305187 -13.0625 17.625 C-12.41764648 15.81128906 -12.41764648 15.81128906 -11.75976562 13.9609375 C-11.33501953 12.80078125 -10.91027344 11.640625 -10.47265625 10.4453125 C-10.09375244 9.39875488 -9.71484863 8.35219727 -9.32446289 7.27392578 C-7.28568278 3.0039498 -4.96813136 -0.07762705 0 0 Z M-1 34.5 C-2.1721449 37.45619219 -3.33677476 40.41528789 -4.5 43.375 C-4.83386719 44.21675781 -5.16773438 45.05851562 -5.51171875 45.92578125 C-5.82753906 46.73144531 -6.14335937 47.53710938 -6.46875 48.3671875 C-6.76201172 49.11081543 -7.05527344 49.85444336 -7.35742188 50.62060547 C-8.10783991 52.48437213 -8.10783991 52.48437213 -8 54.5 C-8.52207031 54.67015625 -9.04414063 54.8403125 -9.58203125 55.015625 C-15.7682136 57.05240658 -21.88858108 59.24962705 -28 61.5 C-28 62.16 -28 62.82 -28 63.5 C-25.04380781 64.6721449 -22.08471211 65.83677476 -19.125 67 C-18.28324219 67.33386719 -17.44148438 67.66773438 -16.57421875 68.01171875 C-15.36572266 68.48544922 -15.36572266 68.48544922 -14.1328125 68.96875 C-13.38918457 69.26201172 -12.64555664 69.55527344 -11.87939453 69.85742188 C-10.01562787 70.60783991 -10.01562787 70.60783991 -8 70.5 C-7.82984375 71.02207031 -7.6596875 71.54414062 -7.484375 72.08203125 C-5.44759342 78.2682136 -3.25037295 84.38858108 -1 90.5 C-0.34 90.5 0.32 90.5 1 90.5 C2.1721449 87.54380781 3.33677476 84.58471211 4.5 81.625 C4.83386719 80.78324219 5.16773438 79.94148438 5.51171875 79.07421875 C5.98544922 77.86572266 5.98544922 77.86572266 6.46875 76.6328125 C6.76201172 75.88918457 7.05527344 75.14555664 7.35742188 74.37939453 C8.10783991 72.51562787 8.10783991 72.51562787 8 70.5 C8.52207031 70.32984375 9.04414063 70.1596875 9.58203125 69.984375 C15.7682136 67.94759342 21.88858108 65.75037295 28 63.5 C28 62.84 28 62.18 28 61.5 C25.04380781 60.3278551 22.08471211 59.16322524 19.125 58 C18.28324219 57.66613281 17.44148438 57.33226563 16.57421875 56.98828125 C15.76855469 56.67246094 14.96289062 56.35664062 14.1328125 56.03125 C13.38918457 55.73798828 12.64555664 55.44472656 11.87939453 55.14257812 C10.01562787 54.39216009 10.01562787 54.39216009 8 54.5 C7.82984375 53.97792969 7.6596875 53.45585938 7.484375 52.91796875 C5.44759342 46.7317864 3.25037295 40.61141892 1 34.5 C0.34 34.5 -0.32 34.5 -1 34.5 Z " fill="#000000" transform="translate(258,39.5)"/>
<path d="M0 0 C0.66 -0.0103125 1.32 -0.020625 2 -0.03125 C4.92673099 0.74616292 6.06145773 2.1930513 8 4.5 C9.00366211 7.44165039 9.00366211 7.44165039 9.77734375 10.84765625 C13.12938305 25.13744885 13.12938305 25.13744885 22.28515625 35.87109375 C29.38032112 39.64356017 37.26153944 41.7252755 45.05834961 43.49633789 C48.338374 44.61544987 49.83133264 45.8311447 52 48.5 C52.53125 50.5 52.53125 50.5 52.5 52.5 C52.51546875 53.49 52.51546875 53.49 52.53125 54.5 C51.75383708 57.42673099 50.3069487 58.56145773 48 60.5 C45.05834961 61.50366211 45.05834961 61.50366211 41.65234375 62.27734375 C27.36255115 65.62938305 27.36255115 65.62938305 16.62890625 74.78515625 C12.85643983 81.88032112 10.7747245 89.76153944 9.00366211 97.55834961 C7.88455013 100.838374 6.6688553 102.33133264 4 104.5 C2 105.03125 2 105.03125 0 105 C-0.99 105.01546875 -0.99 105.01546875 -2 105.03125 C-4.92673099 104.25383708 -6.06145773 102.8069487 -8 100.5 C-9.00366211 97.55834961 -9.00366211 97.55834961 -9.77734375 94.15234375 C-13.12938305 79.86255115 -13.12938305 79.86255115 -22.28515625 69.12890625 C-29.38032112 65.35643983 -37.26153944 63.2747245 -45.05834961 61.50366211 C-48.338374 60.38455013 -49.83133264 59.1688553 -52 56.5 C-52.53125 54.5 -52.53125 54.5 -52.5 52.5 C-52.5103125 51.84 -52.520625 51.18 -52.53125 50.5 C-51.75383708 47.57326901 -50.3069487 46.43854227 -48 44.5 C-45.05834961 43.49633789 -45.05834961 43.49633789 -41.65234375 42.72265625 C-27.36255115 39.37061695 -27.36255115 39.37061695 -16.62890625 30.21484375 C-12.85643983 23.11967888 -10.7747245 15.23846056 -9.00366211 7.44165039 C-7.4511734 2.89143477 -5.00052553 -0.07813321 0 0 Z M-1 34.5 C-1.33257812 35.71236328 -1.33257812 35.71236328 -1.671875 36.94921875 C-4.54321572 45.57364433 -4.54321572 45.57364433 -9.00390625 48.41015625 C-11.97803772 49.6145566 -14.90666782 50.65143041 -18 51.5 C-18 52.16 -18 52.82 -18 53.5 C-16.78763672 53.83257812 -16.78763672 53.83257812 -15.55078125 54.171875 C-6.92635567 57.04321572 -6.92635567 57.04321572 -4.08984375 61.50390625 C-2.8854434 64.47803772 -1.84856959 67.40666782 -1 70.5 C-0.34 70.5 0.32 70.5 1 70.5 C1.33257812 69.28763672 1.33257812 69.28763672 1.671875 68.05078125 C4.54321572 59.42635567 4.54321572 59.42635567 9.00390625 56.58984375 C11.97803772 55.3854434 14.90666782 54.34856959 18 53.5 C18 52.84 18 52.18 18 51.5 C16.78763672 51.16742188 16.78763672 51.16742188 15.55078125 50.828125 C6.92635567 47.95678428 6.92635567 47.95678428 4.08984375 43.49609375 C2.8854434 40.52196228 1.84856959 37.59333218 1 34.5 C0.34 34.5 -0.32 34.5 -1 34.5 Z " fill="#000000" transform="translate(180,267.5)"/>
</svg>
