<svg class="w-10 md:w-full" viewBox="0 0 58 59" fill="none" xmlns="http://www.w3.org/2000/svg">
    <g filter="url(#filter0_d_0_736)">
        <path d="M52.3075 22.196H52.3151C52.118 22.634 51.9577 23.1222 51.8445 23.6505C51.4575 25.4281 51.6721 27.2803 52.3169 28.7222H52.3075C53.0472 30.0834 53.2475 31.7336 52.7301 33.3248C52.2128 34.916 51.0798 36.1342 49.6798 36.8008L49.6861 36.8055C49.2682 37.0448 48.8548 37.3463 48.4508 37.7052C47.0928 38.9173 46.1775 40.544 45.851 42.0855L45.8434 42.0808C45.6551 43.5058 44.9466 44.8593 43.7657 45.8318C43.6724 45.908 43.5776 45.9826 43.4782 46.054C42.1248 47.0392 40.4917 47.3561 38.9675 47.0734L38.9692 47.0811C38.4906 47.0314 37.9794 47.0298 37.4418 47.0842C35.63 47.2676 33.9333 48.043 32.7614 49.1012L32.7586 49.0918C31.6913 50.2153 30.1824 50.9176 28.509 50.9176C26.8356 50.9176 25.3284 50.2152 24.2607 49.0918L24.2577 49.1027C23.8988 48.7794 23.4854 48.4748 23.0193 48.2045C21.4466 47.2893 19.6179 46.9179 18.0469 47.0857L18.0516 47.0733C16.5273 47.3561 14.8926 47.0391 13.5408 46.0539C12.6007 45.3734 11.9218 44.4612 11.5287 43.4528C11.3547 43.0115 11.2365 42.55 11.1744 42.0807L11.1666 42.087C11.0689 41.6162 10.9103 41.1283 10.6927 40.6341C9.9593 38.9683 8.69757 37.5948 7.32863 36.8086L7.33798 36.8008C5.9395 36.1342 4.80527 34.916 4.28942 33.3248C3.77038 31.7336 3.97237 30.0834 4.71208 28.7222H4.70124C4.89855 28.2809 5.05708 27.7946 5.17204 27.2678C5.559 25.4886 5.34439 23.6348 4.70124 22.1958H4.71208C3.97237 20.8314 3.77038 19.1812 4.28942 17.59C4.80537 15.9989 5.9396 14.7807 7.33798 14.1155L7.33032 14.1093C7.74821 13.8702 8.16322 13.5684 8.564 13.2079C9.92359 11.9958 10.8388 10.3707 11.1651 8.82594L11.1745 8.83529C11.2102 8.57731 11.2615 8.32272 11.3299 8.07071C11.6656 6.8245 12.4145 5.67763 13.5409 4.86045C14.3784 4.25439 15.3232 3.89707 16.2835 3.78519C16.8755 3.71348 17.4707 3.73238 18.0517 3.84118L18.0486 3.83183C18.5273 3.88155 19.0399 3.88464 19.5761 3.82874C21.3863 3.64536 23.0831 2.87153 24.2562 1.81178L24.2609 1.82421C25.3284 0.699131 26.8358 -7.62939e-06 28.5092 -7.62939e-06C30.1826 -7.62939e-06 31.6914 0.699131 32.7589 1.82421L32.7604 1.81795C33.1194 2.14117 33.5329 2.4426 34.0006 2.71301C35.5731 3.62984 37.4005 3.9997 38.9711 3.83183L38.9681 3.84118C39.1576 3.80696 39.3457 3.77902 39.5382 3.7635C40.8916 3.64874 42.2932 3.9997 43.4788 4.86045C44.5261 5.62184 45.2487 6.66289 45.6137 7.80965C45.7225 8.1453 45.7971 8.48721 45.8438 8.83529L45.85 8.82903C45.9479 9.30141 46.1049 9.78902 46.324 10.2834C47.0593 11.9491 48.3207 13.3229 49.6898 14.1091L49.6803 14.1153C51.0803 14.7804 52.2133 16.0018 52.7307 17.5898C53.2477 19.1816 53.0472 20.8349 52.3075 22.196Z" fill="#9EFC60"></path>
    </g>
    <defs>
        <filter id="filter0_d_0_736" x="0" y="-7.62939e-06" width="57.019" height="58.9176" filterUnits="userSpaceOnUse" color-interpolation-filters="sRGB">
            <feFlood flood-opacity="0" result="BackgroundImageFix"></feFlood>
            <feColorMatrix in="SourceAlpha" type="matrix" values="0 0 0 0 0 0 0 0 0 0 0 0 0 0 0 0 0 0 127 0" result="hardAlpha"></feColorMatrix>
            <feOffset dy="4"></feOffset>
            <feGaussianBlur stdDeviation="2"></feGaussianBlur>
            <feComposite in2="hardAlpha" operator="out"></feComposite>
            <feColorMatrix type="matrix" values="0 0 0 0 0 0 0 0 0 0 0 0 0 0 0 0 0 0 0.25 0"></feColorMatrix>
            <feBlend mode="normal" in2="BackgroundImageFix" result="effect1_dropShadow_0_736"></feBlend>
            <feBlend mode="normal" in="SourceGraphic" in2="effect1_dropShadow_0_736" result="shape"></feBlend>
        </filter>
    </defs>
</svg>