<svg width="94" height="97" viewBox="0 0 94 97" fill="none" xmlns="http://www.w3.org/2000/svg">
    <path d="M42.1855 0.588722C37.7746 1.82455 34.1019 5.72219 32.9677 10.3994C32.7336 11.35 32.6076 12.4908 32.6076 13.6506V15.4187H32.0675C30.8433 15.4187 29.2049 16.6356 28.6288 17.9855C28.1787 19.0122 28.1787 20.9705 28.6288 21.9782C28.8089 22.3965 29.2409 23.0049 29.565 23.3471C30.5012 24.2787 31.2933 24.5449 33.1477 24.5449C34.0299 24.5449 34.768 24.621 34.768 24.716C34.768 25.0012 37.0365 27.4729 37.8106 28.0433L38.5308 28.5756L37.1445 29.9636C35.1821 31.9219 33.9759 34.1464 33.1477 37.3786C32.5896 39.489 32.4456 44.0331 32.8597 45.9154C33.2377 47.6075 34.0839 49.4137 34.876 50.2313L35.4882 50.8587V55.5739C35.4882 60.0419 35.5062 60.3081 35.8482 60.6693C36.0463 60.8785 36.3703 61.0496 36.5684 61.0496C36.9104 61.0496 36.9285 61.1827 36.9285 64.1487V67.2288L36.1543 67.6661L35.3801 68.1034L33.1297 66.9626C27.8367 64.2628 20.9773 62.5706 15.2882 62.5706C12.8217 62.5706 12.4436 62.7608 12.4436 64.0536C12.4436 65.4226 13.1458 65.7838 15.8103 65.8028C20.5092 65.8218 26.9005 67.476 31.7974 69.9666C33.7778 70.9743 36.1903 72.4573 35.4342 72.1911C33.4718 71.5257 27.8367 71.5637 25.2442 72.2482C22.3456 73.0277 20.5812 74.0544 16.9085 77.1535C13.5779 79.9484 11.7775 81.0131 8.59089 82.0398C7.33064 82.4581 7.00658 82.6482 6.79054 83.0665C6.66451 83.3517 5.90837 85.6142 5.13421 88.1049C3.96398 91.8314 3.63992 92.649 3.35186 92.706C3.15382 92.744 2.68573 92.8391 2.30766 92.8961C1.37148 93.0482 0.921387 93.5806 0.921387 94.5122C0.921387 95.5199 1.40748 96.0333 2.36167 96.0333C2.75775 96.0333 10.6793 94.7594 19.9871 93.1813C29.277 91.6223 36.9465 90.3294 37.0005 90.3294C37.0545 90.3294 37.2885 90.7287 37.5406 91.242C38.1167 92.4208 39.665 93.9418 41.0513 94.7024C44.4899 96.5276 49.5309 96.5276 52.9696 94.7024C54.3559 93.9418 55.9042 92.4208 56.4803 91.242C56.7323 90.7287 56.9844 90.3294 57.0744 90.3294C57.1644 90.3294 64.8159 91.6223 74.0877 93.1813C83.3596 94.7594 91.2631 96.0333 91.6592 96.0333C92.5954 96.0333 93.0995 95.5199 93.0995 94.5883C93.0995 93.3715 92.7034 93.0292 90.939 92.725L90.3089 92.6109L88.8867 88.0859C88.1125 85.6142 87.3563 83.3517 87.2303 83.0665C87.0323 82.6482 86.7082 82.4581 85.664 82.1349C82.3514 81.0701 80.425 79.9484 77.1303 77.1725C73.3496 73.9974 71.7293 73.0467 68.7407 72.2482C66.1842 71.5637 60.5671 71.5257 58.5867 72.1911C57.8666 72.4193 59.847 71.2025 62.0434 70.0617C66.6163 67.6851 72.1254 66.1451 76.9863 65.8979C81.1991 65.6697 81.5772 65.5176 81.5772 64.0917C81.5772 62.7608 81.2171 62.5706 78.7327 62.5706C73.0435 62.5706 66.2922 64.2248 60.9092 66.9436L58.6407 68.1034L57.8666 67.6661L57.0924 67.2288V64.1487C57.0924 61.1827 57.1104 61.0496 57.4525 61.0496C57.6505 61.0496 57.9746 60.8785 58.1726 60.6693C58.5327 60.2891 58.5327 60.0419 58.5327 49.2806V38.2912L59.919 38.044C64.4379 37.2835 69.1368 34.3175 72.1074 30.4009C73.9437 27.9862 75.456 24.64 75.456 23.0239C75.456 20.4381 73.5116 18.4608 71.0091 18.4608C68.9567 18.4608 67.8225 19.3164 66.7783 21.636C66.0762 23.176 65.284 24.1266 63.8977 25.0773C62.5475 26.0089 60.9092 26.6934 59.0188 27.0926C56.9484 27.549 56.9304 27.5299 58.1546 26.142C58.7667 25.4385 59.2528 24.7921 59.2528 24.716C59.2528 24.621 60.009 24.5449 60.9272 24.5449C62.1514 24.5449 62.7635 24.4499 63.3036 24.1837C64.1858 23.7464 65.086 22.7767 65.446 21.8451C65.8421 20.8754 65.8061 18.9361 65.392 17.9855C64.8159 16.6356 63.1776 15.4187 61.9534 15.4187H61.4133V13.6506C61.4133 12.4908 61.2872 11.35 61.0532 10.3994C59.919 5.68417 56.2282 1.78653 51.7634 0.588722C49.783 0.0563583 44.1299 0.0563583 42.1855 0.588722ZM49.2789 3.42164C50.089 3.53571 51.2053 3.78288 51.7994 3.99202C54.4639 4.9997 56.8764 7.54742 57.8306 10.3803C58.1546 11.35 58.6047 14.278 58.4427 14.4301C58.3167 14.5632 55.9402 12.0535 55.076 10.8366C54.5539 10.1142 53.9418 9.46773 53.7077 9.41068C53.1676 9.25858 52.4835 9.37266 50.071 10.0571C46.3083 11.1409 39.665 12.1866 36.6764 12.1866H35.7042L35.9203 11.2739C36.6224 8.51708 38.3867 6.14047 40.8892 4.61945C42.7796 3.47868 45.9302 3.02237 49.2789 3.42164ZM53.6717 14.1829C55.004 15.78 56.4983 17.1299 57.5785 17.7383C58.3347 18.1566 58.3707 18.2136 58.2626 18.8411C57.6505 22.3775 55.004 25.6477 51.7994 26.8455C49.3869 27.7391 45.066 27.7581 42.5095 26.9025C40.3491 26.18 38.5308 24.697 37.1985 22.5866C36.3703 21.2747 35.8662 19.7157 35.6502 17.8144C35.3801 15.2286 35.1461 15.4948 37.7926 15.3617C41.9334 15.1336 47.4785 14.24 50.7912 13.2513C51.6373 13.0041 52.3755 12.814 52.4475 12.833C52.5015 12.833 53.0596 13.4414 53.6717 14.1829ZM32.8597 20.0199C33.0217 20.7614 33.1117 21.4078 33.0757 21.4648C32.8957 21.636 31.6894 21.0656 31.5274 20.7423C31.2393 20.172 31.3113 19.4495 31.7074 19.0312C32.3376 18.3657 32.5536 18.5559 32.8597 20.0199ZM62.3134 19.0312C62.7095 19.4495 62.7815 20.172 62.4935 20.7423C62.3314 21.0656 61.1252 21.636 60.9452 21.4648C60.9092 21.4078 60.9992 20.7614 61.1612 20.0199C61.4673 18.5559 61.6833 18.3657 62.3134 19.0312ZM72.0173 22.1873C72.4854 22.8148 72.4854 22.9288 71.9993 24.2597L71.6213 25.3244L70.5771 24.2407C69.4788 23.0999 69.4428 22.9098 70.109 22.1113C70.6311 21.5029 71.5312 21.5409 72.0173 22.1873ZM68.7767 27.0926C69.5869 27.9672 69.6949 28.1764 69.5508 28.4806C69.2448 29.051 67.1204 31.0853 65.8961 31.979C63.6457 33.595 60.135 34.983 58.2626 35.002C57.1824 35.021 56.1382 35.3252 55.8862 35.6865C55.7061 35.9336 55.6521 37.2455 55.6521 40.934V45.8393H48.7208H41.7894L41.5734 45.307C41.4113 44.9077 41.2313 40.953 41.2493 37.8919C41.2493 37.2265 40.6372 36.7132 39.809 36.7132C38.3327 36.7132 38.0627 37.7208 38.2427 42.5121C38.3327 44.7556 38.4408 45.6682 38.7468 46.6759C39.1969 48.0828 39.1069 48.5391 38.3867 48.6532C37.4866 48.8053 36.4063 47.3603 35.9023 45.326C35.5242 43.7859 35.6682 39.9834 36.2083 38.044C37.0185 35.0971 38.8008 32.3212 40.4751 31.4086L41.2133 31.0283L41.3033 31.5797C41.4293 32.2261 43.1217 33.7852 44.5439 34.5837C45.3541 35.021 45.6962 35.0971 47.0104 35.0971C48.4147 35.0971 48.6307 35.04 49.6569 34.4696C50.2691 34.1084 51.2233 33.3859 51.7634 32.8345C52.5735 32.055 52.7716 31.7318 52.7716 31.2565V30.6671L55.9762 30.572C58.4427 30.515 59.4689 30.4009 60.5491 30.0967C63.2316 29.3362 65.392 28.1954 66.8863 26.7884C67.2824 26.4082 67.6605 26.085 67.7145 26.0659C67.7685 26.0659 68.2546 26.5223 68.7767 27.0926ZM48.9908 31.0093C48.3427 31.5416 47.4785 31.9599 47.0104 31.9599C46.5423 31.9599 45.6782 31.5416 45.03 31.0093L44.58 30.629H47.0104H49.4409L48.9908 31.0093ZM55.4721 53.4445V58.0075H47.0104H38.5488V54.9655V51.9234H38.9989C40.0791 51.9234 41.4833 50.7256 41.9514 49.3947L42.1495 48.8814H48.8108H55.4721V53.4445ZM42.6896 64.0917V67.1337H41.2493H39.809V64.0917V61.0496H41.2493H42.6896V64.0917ZM48.4507 68.2935V75.5374L48.8648 75.9177L49.2969 76.3169L48.3427 77.838C47.8206 78.6555 47.3345 79.5111 47.2805 79.7012C47.2085 79.8913 47.1004 80.0625 47.0104 80.0625C46.9204 80.0625 46.8124 79.8913 46.7404 79.7012C46.6864 79.5111 46.2003 78.6555 45.6782 77.838L44.724 76.3169L45.1561 75.9177L45.5701 75.5374V68.2935V61.0496H47.0104H48.4507V68.2935ZM54.2118 64.0917V67.1337H52.7716H51.3313V64.0917V61.0496H52.7716H54.2118V64.0917ZM42.6896 71.6968C42.6896 73.0467 42.6536 73.2178 42.3475 73.2178C42.1675 73.2178 41.6634 72.8946 41.2313 72.4953C40.7992 72.0961 40.0071 71.4116 39.485 70.9743L38.5128 70.1758H40.6012H42.6896V71.6968ZM54.5359 70.9743C54.0138 71.4116 53.2216 72.0961 52.7896 72.4953C52.3575 72.8946 51.8534 73.2178 51.6733 73.2178C51.3673 73.2178 51.3313 73.0467 51.3313 71.6968V70.1758H53.4197H55.5081L54.5359 70.9743ZM34.1379 75.2332C35.9203 75.6515 38.7288 77.1535 40.4391 78.5985C41.6814 79.6632 43.7698 82.0588 43.7698 82.4201C43.7698 82.4771 43.2297 82.2489 42.5636 81.8877C39.4669 80.2526 35.7942 79.3019 32.5716 79.3019C29.0429 79.321 26.7565 80.0435 18.6729 83.7129C13.8119 85.9184 11.3634 86.9261 9.43706 87.5345L8.51888 87.8197L8.91496 86.5649L9.32904 85.31L11.0214 84.6255C14.244 83.3327 15.6843 82.4201 19.483 79.2259C23.1197 76.1458 25.2982 75.1952 29.1869 74.948C31.5094 74.7959 32.5176 74.8529 34.1379 75.2332ZM67.5705 75.2902C68.8307 75.5944 70.6311 76.3169 71.5672 76.9063C72.0353 77.1915 73.4216 78.2753 74.6639 79.34C78.3006 82.401 79.8129 83.3517 82.9995 84.6255L84.6918 85.31L85.1059 86.5649L85.502 87.8197L84.5838 87.5345C82.8195 87.0022 80.227 85.9184 75.276 83.6749C67.2464 80.0435 64.96 79.321 61.4493 79.3019C58.2266 79.3019 54.5539 80.2526 51.4753 81.8877C50.7912 82.2489 50.2511 82.4771 50.2511 82.4201C50.2511 82.0588 52.3395 79.6632 53.5817 78.6175C56.0842 76.488 58.9468 75.1762 61.5753 74.948C63.1776 74.8149 66.3642 74.986 67.5705 75.2902ZM34.408 82.6102C37.6846 82.9524 43.0317 85.3671 44.796 87.3254C45.1021 87.6676 45.4441 88.314 45.5521 88.7513C45.7862 89.6449 46.1463 89.9491 47.0104 89.9491C47.8746 89.9491 48.2347 89.6449 48.4687 88.7513C48.7208 87.7437 49.4589 86.9071 51.0612 85.8614C54.1578 83.808 58.1906 82.5151 61.3953 82.5151C64.2758 82.5151 66.4902 83.2376 74.4658 86.8691C79.7409 89.2647 82.2073 90.2343 84.8899 90.9949C86.3842 91.4322 86.9783 91.7173 86.7802 91.9265C86.7262 91.9835 79.8669 90.8808 71.5312 89.4738C63.1776 88.0669 56.0302 86.9071 55.6521 86.9071C54.7339 86.9071 54.2659 87.3824 54.1218 88.5042C53.5277 92.649 45.9302 94.3601 41.6994 91.28C40.6912 90.5576 40.0611 89.5689 39.899 88.4471C39.737 87.3634 39.2869 86.9071 38.3687 86.9071C37.9727 86.9071 30.8253 88.0669 22.4896 89.4738C14.154 90.8808 7.29464 92.0025 7.24063 91.9455C7.04259 91.7173 7.6007 91.4322 9.131 90.9949C11.8135 90.2343 14.28 89.2647 19.555 86.8691C24.9021 84.4354 27.1885 83.5038 29.0429 83.0095C30.3032 82.6482 32.2835 82.382 32.9677 82.4581C33.2197 82.4961 33.8679 82.5531 34.408 82.6102Z" fill="#C569FF"></path>
    <path d="M41.6112 17.3211C41.3772 17.5683 41.2512 17.9485 41.2512 18.4619C41.2512 19.4696 41.7373 19.9829 42.6914 19.9829C43.6456 19.9829 44.1317 19.4696 44.1317 18.4619C44.1317 17.9485 44.0057 17.5683 43.7717 17.3211C43.5376 17.0739 43.1775 16.9409 42.6914 16.9409C42.2053 16.9409 41.8453 17.0739 41.6112 17.3211Z" fill="#C569FF"></path>
    <path d="M50.25 17.3211C50.0159 17.5683 49.8899 17.9485 49.8899 18.4619C49.8899 18.9752 50.0159 19.3555 50.25 19.6027C50.484 19.8498 50.8441 19.9829 51.3302 19.9829C51.8163 19.9829 52.1763 19.8498 52.4104 19.6027C52.6444 19.3555 52.7705 18.9752 52.7705 18.4619C52.7705 17.9485 52.6444 17.5683 52.4104 17.3211C52.1763 17.0739 51.8163 16.9409 51.3302 16.9409C50.8441 16.9409 50.484 17.0739 50.25 17.3211Z" fill="#C569FF"></path>
    <path d="M44.4937 21.1219C44.0976 21.5402 44.0076 22.6049 44.3137 23.2133C44.6557 23.8978 45.97 24.5442 47.0142 24.5442C48.0584 24.5442 49.3727 23.8978 49.7147 23.2133C50.0208 22.6049 49.9308 21.5402 49.5347 21.1219C49.1026 20.6656 47.9864 20.6085 47.4103 21.0458C47.0502 21.312 46.9782 21.312 46.6181 21.0458C46.042 20.6085 44.9258 20.6656 44.4937 21.1219Z" fill="#C569FF"></path>
    <path d="M76.19 0.56868C75.9919 0.777822 75.7759 1.34821 75.7039 1.86156C75.3618 4.37125 73.9756 5.83524 71.6171 6.19649C70.5009 6.34859 70.0508 6.82391 70.0508 7.81258C70.0508 8.80125 70.5009 9.27657 71.6171 9.44769C73.9936 9.80893 75.3798 11.2729 75.7219 13.7636C75.8659 14.9424 76.316 15.4177 77.2522 15.4177C78.1884 15.4177 78.6385 14.9424 78.8005 13.7636C79.1426 11.2539 80.5468 9.75189 82.8873 9.42867C84.0035 9.27657 84.4536 8.80125 84.4536 7.81258C84.4536 6.82391 84.0035 6.34859 82.8873 6.19649C80.5288 5.83524 79.1426 4.37125 78.8005 1.86156C78.6385 0.682757 78.1884 0.207436 77.2522 0.207436C76.7841 0.207436 76.406 0.340526 76.19 0.56868ZM77.8823 7.24219L78.4044 7.81258L77.8283 8.44L77.2522 9.04842L76.6761 8.44L76.1 7.81258L76.6221 7.24219C76.9101 6.93799 77.1982 6.67181 77.2522 6.67181C77.3062 6.67181 77.5943 6.93799 77.8823 7.24219Z" fill="#C569FF"></path>
    <path d="M14.2654 12.7386C14.0674 12.9477 13.8513 13.5181 13.7793 14.0315C13.4373 16.5412 12.051 18.0052 9.69253 18.3664C8.57631 18.5185 8.12622 18.9938 8.12622 19.9825C8.12622 20.9712 8.57631 21.4465 9.69253 21.6176C12.069 21.9789 13.4553 23.4428 13.7973 25.9335C13.9414 27.1123 14.3915 27.5876 15.3276 27.5876C16.2638 27.5876 16.7139 27.1123 16.8759 25.9335C17.218 23.4238 18.6223 21.9218 20.9627 21.5986C22.079 21.4465 22.529 20.9712 22.529 19.9825C22.529 18.9938 22.079 18.5185 20.9627 18.3664C18.6043 18.0052 17.218 16.5412 16.8759 14.0315C16.7139 12.8527 16.2638 12.3774 15.3276 12.3774C14.8595 12.3774 14.4815 12.5104 14.2654 12.7386ZM15.9578 19.4121L16.4799 19.9825L15.9037 20.6099L15.3276 21.2183L14.7515 20.6099L14.1754 19.9825L14.6975 19.4121C14.9856 19.1079 15.2736 18.8417 15.3276 18.8417C15.3816 18.8417 15.6697 19.1079 15.9578 19.4121Z" fill="#C569FF"></path>
    <path d="M71.8727 38.5946C71.6746 38.8037 71.4586 39.3741 71.3866 39.8874C71.0445 42.3971 69.6582 43.8611 67.2998 44.2224C66.1835 44.3745 65.7335 44.8498 65.7335 45.8385C65.7335 46.8271 66.1835 47.3024 67.2998 47.4736C69.6762 47.8348 71.0625 49.2988 71.4046 51.7895C71.5486 52.9683 71.9987 53.4436 72.9349 53.4436C73.8711 53.4436 74.3211 52.9683 74.4832 51.7895C74.8252 49.2798 76.2295 47.7778 78.57 47.4546C79.6862 47.3024 80.1363 46.8271 80.1363 45.8385C80.1363 44.8498 79.6862 44.3745 78.57 44.2224C76.2115 43.8611 74.8252 42.3971 74.4832 39.8874C74.3211 38.7086 73.8711 38.2333 72.9349 38.2333C72.4668 38.2333 72.0887 38.3664 71.8727 38.5946ZM73.565 45.2681L74.0871 45.8385L73.511 46.4659L72.9349 47.0743L72.3588 46.4659L71.7826 45.8385L72.3047 45.2681C72.5928 44.9639 72.8809 44.6977 72.9349 44.6977C72.9889 44.6977 73.2769 44.9639 73.565 45.2681Z" fill="#C569FF"></path>
    <path d="M21.4624 44.6785C21.2643 44.8877 21.0483 45.4581 20.9763 45.9714C20.6342 48.4811 19.248 49.9451 16.8895 50.3064C15.7733 50.4585 15.3232 50.9338 15.3232 51.9224C15.3232 52.9111 15.7733 53.3864 16.8895 53.5575C19.266 53.9188 20.6522 55.3828 20.9943 57.8735C21.1383 59.0523 21.5884 59.5276 22.5246 59.5276C23.4608 59.5276 23.9109 59.0523 24.0729 57.8735C24.415 55.3638 25.8192 53.8618 28.1597 53.5385C29.2759 53.3864 29.726 52.9111 29.726 51.9224C29.726 50.9338 29.2759 50.4585 28.1597 50.3064C25.8012 49.9451 24.415 48.4811 24.0729 45.9714C23.9109 44.7926 23.4608 44.3173 22.5246 44.3173C22.0565 44.3173 21.6784 44.4504 21.4624 44.6785ZM23.1547 51.3521L23.6768 51.9224L23.1007 52.5499L22.5246 53.1583L21.9485 52.5499L21.3724 51.9224L21.8945 51.3521C22.1825 51.0479 22.4706 50.7817 22.5246 50.7817C22.5786 50.7817 22.8667 51.0479 23.1547 51.3521Z" fill="#C569FF"></path>
</svg>