<svg class="h-6 w-6" width="21" height="21" viewBox="0 0 21 21" fill="none" xmlns="http://www.w3.org/2000/svg">
<g clip-path="url(#clip0_1007_1341)">
<path d="M20.6665 10.5C20.6665 4.97715 16.1894 0.5 10.6665 0.5C5.14365 0.5 0.666504 4.97715 0.666504 10.5C0.666504 15.4912 4.32334 19.6283 9.104 20.3785V13.3906H6.56494V10.5H9.104V8.29688C9.104 5.79063 10.597 4.40625 12.8812 4.40625C13.9749 4.40625 15.1196 4.60156 15.1196 4.60156V7.0625H13.8587C12.6165 7.0625 12.229 7.8334 12.229 8.625V10.5H15.0024L14.5591 13.3906H12.229V20.3785C17.0097 19.6283 20.6665 15.4912 20.6665 10.5Z" fill="white"></path>
</g>
<defs>
<clipPath id="clip0_1007_1341">
<rect width="20" height="20" fill="white" transform="translate(0.666504 0.5)"></rect>
</clipPath>
</defs>
</svg>