<svg class="w-8 h-8  md:block" width="23" height="26" viewBox="0 0 23 26" fill="none" xmlns="http://www.w3.org/2000/svg">
    <g filter="url(#filter0_f_1312_2327)">
        <path d="M7.82543 13.8101C7.5872 13.8101 7.39453 13.6175 7.39453 13.3792V12.6067C7.39453 12.3684 7.5872 12.1758 7.82543 12.1758C8.06365 12.1758 8.25635 12.3684 8.25635 12.6067V13.3792C8.25635 13.6168 8.06365 13.8101 7.82543 13.8101Z" fill="black"></path>
        <path d="M14.0208 13.8101C13.7825 13.8101 13.5898 13.6175 13.5898 13.3792V12.6067C13.5898 12.3684 13.7825 12.1758 14.0208 12.1758C14.259 12.1758 14.4517 12.3684 14.4517 12.6067V13.3792C14.4517 13.6168 14.2584 13.8101 14.0208 13.8101Z" fill="black"></path>
        <path d="M11.1407 20.5795C9.366 20.5795 7.92188 19.3736 7.92188 17.8919C7.92188 17.6536 8.11454 17.4609 8.35277 17.4609C8.591 17.4609 8.78366 17.6536 8.78366 17.8919C8.78366 18.8983 9.84122 19.7176 11.1407 19.7176C12.4402 19.7176 13.4978 18.8983 13.4978 17.8919C13.4978 17.6536 13.6905 17.4609 13.9287 17.4609C14.1669 17.4609 14.3596 17.6536 14.3596 17.8919C14.3596 19.3736 12.9154 20.5795 11.1407 20.5795Z" fill="black"></path>
        <path d="M13.9287 18.3228H8.35277C8.11454 18.3228 7.92188 18.1301 7.92188 17.8919C7.92188 17.6536 8.11454 17.4609 8.35277 17.4609H13.9287C14.1669 17.4609 14.3596 17.6536 14.3596 17.8919C14.3596 18.1301 14.1669 18.3228 13.9287 18.3228Z" fill="black"></path>
        <path d="M11.2859 24.1505C10.2086 24.1505 8.69741 23.6279 7.13814 22.7168C5.62812 21.8341 4.48004 20.8196 4.06822 20.0027C3.76536 19.4019 3.58071 17.7946 3.38741 15.911C3.37324 15.7706 3.35908 15.6383 3.34616 15.5151C2.87217 15.549 2.45418 15.3637 2.12977 14.9741C1.2298 13.8919 1.26304 11.3292 1.62315 10.3523C1.66932 10.2267 1.80967 9.84566 2.17473 9.78286C2.69303 9.69361 3.41326 9.78226 3.74752 9.97679C3.95311 10.0962 4.02329 10.3603 3.90388 10.5659C3.78446 10.7715 3.52035 10.8417 3.31476 10.7222C3.21074 10.6625 2.79154 10.5874 2.44188 10.6176C2.2258 11.1138 2.0793 13.2917 2.69303 14.284C2.93003 14.6669 3.17564 14.6786 3.36339 14.6466C3.40341 14.6398 3.4342 14.6342 3.45882 14.6299C3.47666 14.617 3.49637 14.6053 3.51791 14.5936C3.64347 14.5272 3.79368 14.5265 3.91988 14.5924C4.04607 14.6583 4.13102 14.782 4.14825 14.9236C4.17658 15.163 4.20797 15.4696 4.24492 15.8242C4.37111 17.0523 4.58225 19.1083 4.83832 19.6155C5.54254 21.0117 9.25881 23.2899 11.2865 23.2899C13.3142 23.2899 17.0305 21.0117 17.7347 19.6155C17.9908 19.1083 18.2019 17.0541 18.3275 15.8266C18.3638 15.4708 18.3958 15.1636 18.4242 14.923C18.4408 14.782 18.5263 14.6577 18.6525 14.5918C18.7787 14.5259 18.9289 14.5265 19.0545 14.5936C19.076 14.6047 19.0952 14.617 19.1136 14.6293C19.1376 14.6336 19.169 14.6392 19.209 14.6466C19.3961 14.6786 19.6424 14.6669 19.8788 14.2846C20.4925 13.2929 20.3466 11.115 20.1306 10.6182C19.7809 10.5881 19.3611 10.6632 19.257 10.7229C19.0508 10.8417 18.7874 10.7715 18.6679 10.5659C18.5491 10.3603 18.6181 10.0974 18.8237 9.978C19.1579 9.7835 19.8781 9.69485 20.3971 9.7841C20.7615 9.84689 20.9019 10.2279 20.948 10.3529C21.3081 11.3292 21.3414 13.8925 20.4408 14.9747C20.1164 15.3643 19.699 15.5496 19.225 15.5158C19.2121 15.6401 19.1986 15.7731 19.1838 15.9147C18.9905 17.7965 18.8058 19.4032 18.503 20.0033C18.0911 20.8202 16.9431 21.8347 15.4331 22.7174C13.8744 23.6279 12.3625 24.1505 11.2859 24.1505ZM3.26121 14.9962C3.26058 14.9962 3.26058 14.9968 3.26121 14.9962C3.26058 14.9962 3.26058 14.9962 3.26121 14.9962ZM3.26245 14.9704C3.26182 14.979 3.26121 14.987 3.26121 14.9956C3.26121 14.9882 3.26121 14.9796 3.26245 14.9704ZM19.3112 14.995V14.9956C19.3112 14.995 19.3112 14.995 19.3112 14.995ZM19.31 14.9697C19.3106 14.979 19.3112 14.987 19.3112 14.9944C19.3112 14.9864 19.3106 14.9778 19.31 14.9697Z" fill="black"></path>
        <path d="M18.8488 12.1126C18.826 12.1126 18.8032 12.1108 18.7804 12.1071C18.4689 12.0573 18.3975 11.7562 18.3674 11.6276C18.3427 11.5223 18.3163 11.3832 18.2837 11.2071C18.0719 10.072 17.588 7.48349 15.9937 6.91901C13.7548 9.36902 10.8216 8.97688 8.45222 8.66049C6.91022 8.45426 5.5787 8.27636 4.83078 8.89564C4.35987 9.28529 4.1013 10.0074 4.04098 11.1031C4.02805 11.3407 3.82369 11.5229 3.5867 11.5094C3.34908 11.4965 3.16686 11.2927 3.18039 11.0551C3.25488 9.70636 3.615 8.78298 4.28168 8.23143C5.31956 7.37208 6.89666 7.58322 8.56672 7.80605C10.909 8.11877 13.564 8.47334 15.5191 6.15323C15.6219 6.03134 15.7825 5.97593 15.9389 6.0098C18.2837 6.51087 18.8777 9.69096 19.1313 11.0483C19.1596 11.1985 19.1904 11.366 19.2107 11.4472C19.2661 11.5334 19.2913 11.6393 19.2741 11.7489C19.2403 11.9618 19.0568 12.1126 18.8488 12.1126Z" fill="black"></path>
        <path d="M18.8428 12.1127C18.7271 12.1127 18.612 12.0665 18.527 11.9754C18.3276 11.7612 18.2057 11.3734 18.6606 10.0019C18.8945 9.29519 19.2238 8.52265 19.427 8.20563C20.1768 7.03109 19.8283 5.75068 19.1192 5.14188C18.5005 4.61064 17.7409 4.66049 17.036 5.27853C16.8865 5.40967 16.6667 5.42136 16.5042 5.30686C16.3417 5.19235 16.2783 4.98182 16.3509 4.79716C16.4925 4.43642 16.474 4.13726 16.2937 3.85471C15.5858 2.74605 12.6975 2.19325 10.4383 2.05659C7.55861 1.88177 4.71832 2.6574 3.20155 4.03138C2.31758 4.83224 1.93222 5.55123 1.98884 6.293C2.0504 7.09266 2.63581 7.95815 3.20092 8.69932C3.43547 9.00709 3.69771 9.75504 4.10522 11.2798C4.1249 11.3537 4.14523 11.43 4.15385 11.4602C4.208 11.6067 4.17971 11.7784 4.06644 11.901C3.90514 12.0764 3.63307 12.0875 3.45761 11.9262C3.36221 11.8388 3.35052 11.7938 3.27233 11.5021C2.81127 9.77719 2.60013 9.33273 2.51516 9.22133C1.84173 8.33797 1.20768 7.37952 1.12949 6.35827C1.0507 5.329 1.52471 4.38655 2.62288 3.39179C4.30343 1.86946 7.3918 1.00764 10.4906 1.1954C12.0942 1.29266 15.9415 1.70079 17.02 3.38995C17.1622 3.61278 17.2515 3.85161 17.2872 4.10032C18.2272 3.69835 19.102 3.98952 19.6806 4.48629C20.6643 5.33087 21.1641 7.08341 20.1534 8.66729C19.8031 9.21579 19.1635 11.0361 19.2097 11.4528C19.3162 11.6245 19.2903 11.8529 19.1364 11.9951C19.0533 12.0745 18.9481 12.1127 18.8428 12.1127ZM19.1586 11.3888L19.1592 11.3894C19.1592 11.3888 19.1586 11.3888 19.1586 11.3888ZM4.04303 11.2946L4.04366 11.2952C4.04366 11.2952 4.04366 11.2946 4.04303 11.2946ZM4.04182 11.2934C4.04182 11.2934 4.04242 11.294 4.04303 11.294C4.04303 11.294 4.04242 11.294 4.04182 11.2934Z" fill="black"></path>
    </g>
    <defs>
        <filter id="filter0_f_1312_2327" x="0.221094" y="0.269922" width="21.8625" height="24.7805" filterUnits="userSpaceOnUse" color-interpolation-filters="sRGB">
            <feFlood flood-opacity="0" result="BackgroundImageFix"></feFlood>
            <feBlend mode="normal" in="SourceGraphic" in2="BackgroundImageFix" result="shape"></feBlend>
            <feGaussianBlur stdDeviation="0.45" result="effect1_foregroundBlur_1312_2327"></feGaussianBlur>
        </filter>
    </defs>
</svg>