<svg class="h-6 w-6" width="21" height="21" viewBox="0 0 21 21" fill="none" xmlns="http://www.w3.org/2000/svg">
    <g clip-path="url(#clip0_1007_880)">
        <path d="M20.1382 10.7302C20.1382 10.0504 20.0831 9.36699 19.9655 8.69824H10.5332V12.5491H15.9346C15.7105 13.791 14.9903 14.8897 13.9357 15.5878V18.0864H17.1582C19.0506 16.3448 20.1382 13.7726 20.1382 10.7302Z" fill="#4285F4"></path>
        <path d="M10.5329 20.5008C13.23 20.5008 15.5045 19.6152 17.1616 18.0867L13.9391 15.588C13.0426 16.198 11.8851 16.5434 10.5366 16.5434C7.92775 16.5434 5.71573 14.7833 4.92205 12.417H1.59668V14.9928C3.29427 18.3696 6.75193 20.5008 10.5329 20.5008Z" fill="#34A853"></path>
        <path d="M4.91865 12.4172C4.49977 11.1753 4.49977 9.83044 4.91865 8.58848V6.0127H1.59695C0.178619 8.83834 0.178619 12.1674 1.59695 14.993L4.91865 12.4172Z" fill="#FBBC04"></path>
        <path d="M10.5329 4.45805C11.9586 4.436 13.3365 4.97247 14.369 5.95722L17.2241 3.10218C15.4163 1.40459 13.0169 0.471278 10.5329 0.500674C6.75192 0.500674 3.29427 2.63185 1.59668 6.01234L4.91838 8.58813C5.70838 6.21811 7.92407 4.45805 10.5329 4.45805Z" fill="#EA4335"></path>
    </g>
    <defs>
        <clipPath id="clip0_1007_880">
            <rect width="20" height="20" fill="white" transform="translate(0.333008 0.5)"></rect>
        </clipPath>
    </defs>
</svg>