<svg class="w-8 h-8  md:block" width="26" height="27" viewBox="0 0 26 27" fill="none" xmlns="http://www.w3.org/2000/svg">
    <path d="M12.9141 0.753906C5.78659 0.753906 0.0078125 6.53268 0.0078125 13.6602C0.0078125 20.7876 5.78659 26.5664 12.9141 26.5664C20.0415 26.5664 25.8203 20.7876 25.8203 13.6602C25.8203 6.53268 20.0415 0.753906 12.9141 0.753906ZM12.9141 1.61432C19.5565 1.61432 24.9599 7.01774 24.9599 13.6602C24.9599 20.3026 19.5565 25.706 12.9141 25.706C6.27165 25.706 0.868229 20.3026 0.868229 13.6602C0.868229 7.01774 6.27165 1.61432 12.9141 1.61432Z" fill="black"></path>
    <path d="M12.9141 0.753906C5.78659 0.753906 0.0078125 6.53268 0.0078125 13.6602C0.0078125 20.7876 5.78659 26.5664 12.9141 26.5664C20.0415 26.5664 25.8203 20.7876 25.8203 13.6602C25.8203 6.53268 20.0415 0.753906 12.9141 0.753906ZM12.9141 1.61432C19.5565 1.61432 24.9599 7.01774 24.9599 13.6602C24.9599 20.3026 19.5565 25.706 12.9141 25.706C6.27165 25.706 0.868229 20.3026 0.868229 13.6602C0.868229 7.01774 6.27165 1.61432 12.9141 1.61432Z" stroke="black"></path>
    <path d="M21.6656 22.7802C21.5548 22.7802 21.4451 22.7383 21.3612 22.6544L18.2938 19.587C18.126 19.4192 18.126 19.1471 18.2938 18.9794C18.4616 18.8116 18.7337 18.8116 18.9025 18.9794L21.9699 22.0457C22.1377 22.2145 22.1377 22.4866 21.9699 22.6544C21.886 22.7383 21.7763 22.7802 21.6656 22.7802Z" fill="black"></path>
    <path d="M21.6656 22.7802C21.5548 22.7802 21.4451 22.7383 21.3612 22.6544L18.2938 19.587C18.126 19.4192 18.126 19.1471 18.2938 18.9794C18.4616 18.8116 18.7337 18.8116 18.9025 18.9794L21.9699 22.0457C22.1377 22.2145 22.1377 22.4866 21.9699 22.6544C21.886 22.7383 21.7763 22.7802 21.6656 22.7802Z" stroke="black"></path>
    <path d="M7.73289 8.84766C7.62211 8.84766 7.5124 8.80572 7.42851 8.72183L3.92662 5.21886C3.75884 5.05108 3.75884 4.77897 3.92662 4.61119C4.09547 4.44341 4.36758 4.44341 4.53536 4.61119L8.03726 8.11308C8.20504 8.28194 8.20504 8.55405 8.03726 8.72183C7.95337 8.80572 7.84366 8.84766 7.73289 8.84766Z" fill="black"></path>
    <path d="M7.73289 8.84766C7.62211 8.84766 7.5124 8.80572 7.42851 8.72183L3.92662 5.21886C3.75884 5.05108 3.75884 4.77897 3.92662 4.61119C4.09547 4.44341 4.36758 4.44341 4.53536 4.61119L8.03726 8.11308C8.20504 8.28194 8.20504 8.55405 8.03726 8.72183C7.95337 8.80572 7.84366 8.84766 7.73289 8.84766Z" stroke="black"></path>
    <path fill-rule="evenodd" clip-rule="evenodd" d="M12.9114 18.5025C10.0957 18.5025 7.40909 18.1562 5.34624 17.5281C5.0623 17.4421 4.90205 17.1409 4.98809 16.857C5.0752 16.5741 5.37635 16.4128 5.65921 16.4988C7.62419 17.0979 10.2001 17.427 12.9114 17.427C15.625 17.427 18.2019 17.0968 20.1658 16.4988C20.453 16.4128 20.7509 16.573 20.837 16.8559C20.923 17.1398 20.7628 17.441 20.4799 17.5281C18.416 18.1562 15.7293 18.5025 12.9114 18.5025Z" fill="black"></path>
    <path fill-rule="evenodd" clip-rule="evenodd" d="M12.9129 16.4765C10.5532 16.4765 8.6592 16.2647 7.28576 15.8463C7.05883 15.7774 6.93084 15.5365 6.9986 15.3096C7.06851 15.0827 7.30835 14.9536 7.53636 15.0224C8.82913 15.4171 10.6382 15.6161 12.9129 15.6161C15.1887 15.6161 16.9988 15.4161 18.2905 15.0224C18.5196 14.9547 18.7583 15.0816 18.8282 15.3085C18.8971 15.5355 18.7691 15.7764 18.5411 15.8463C17.1676 16.2647 15.2737 16.4765 12.9129 16.4765Z" fill="black"></path>
    <path fill-rule="evenodd" clip-rule="evenodd" d="M14.6695 8.15723H11.159C9.00904 8.15723 7.26562 9.90065 7.26562 12.0506V13.7725L7.32048 13.8607C8.78211 14.306 10.7492 14.4834 12.9132 14.4834C15.0771 14.4834 17.0453 14.306 18.507 13.8607L18.5618 13.8005V12.0506C18.5618 9.90065 16.8195 8.15723 14.6695 8.15723ZM14.6695 9.01764C16.3419 9.01764 17.7014 10.3782 17.7014 12.0506V13.1864C16.4796 13.4757 14.8728 13.623 12.9132 13.623C10.9536 13.623 9.34783 13.4768 8.12604 13.1874V12.0506C8.12604 10.3782 9.48658 9.01764 11.159 9.01764H14.6695Z" fill="black"></path>
</svg>