<svg width="71" height="49" viewBox="0 0 71 49" fill="none" xmlns="http://www.w3.org/2000/svg">
    <path d="M64.5 1H6.5C3.46243 1 1 3.46243 1 6.5V42.5C1 45.5376 3.46243 48 6.5 48H64.5C67.5376 48 70 45.5376 70 42.5V6.5C70 3.46243 67.5376 1 64.5 1Z" fill="#FEB4C7" stroke="#D9D9D9"></path>
    <path fill-rule="evenodd" clip-rule="evenodd" d="M11.3483 31.2592H8.5V18.5H11.3483V31.2592ZM18.4594 18.5H15.6729C15.6729 20.848 14.6228 23.0031 12.792 24.4131L11.688 25.2631L15.9656 31.2598H19.4826L15.5467 25.7419C17.4124 23.8319 18.4594 21.2623 18.4594 18.5ZM23.0025 31.2558H20.3126V18.5024H23.0025V31.2558ZM31.1297 22.4338V22.9981C30.4038 22.4891 29.5278 22.1899 28.5829 22.1899C26.0822 22.1899 24.055 24.274 24.055 26.845C24.055 29.4159 26.0822 31.5 28.5829 31.5C29.5278 31.5 30.4038 31.2008 31.1297 30.6919V31.2558H33.6989V22.4338H31.1297ZM31.1219 26.845C31.1219 28.0986 30.0795 29.1148 28.7938 29.1148C27.5082 29.1148 26.4658 28.0986 26.4658 26.845C26.4658 25.5914 27.5082 24.5754 28.7938 24.5754C30.0795 24.5754 31.1219 25.5914 31.1219 26.845ZM58.2342 22.9981V22.4338H60.8033V31.2558H58.2342V30.6919C57.5084 31.2008 56.6323 31.5 55.6873 31.5C53.1866 31.5 51.1594 29.4159 51.1594 26.845C51.1594 24.274 53.1866 22.1899 55.6873 22.1899C56.6323 22.1899 57.5084 22.4891 58.2342 22.9981ZM55.8983 29.1148C57.184 29.1148 58.2262 28.0986 58.2262 26.845C58.2262 25.5914 57.184 24.5754 55.8983 24.5754C54.6125 24.5754 53.5703 25.5914 53.5703 26.845C53.5703 28.0986 54.6125 29.1148 55.8983 29.1148ZM46.594 22.1965C45.5677 22.1965 44.5964 22.5241 43.947 23.4278V22.4343H41.3889V31.2558H43.9784V26.6198C43.9784 25.2782 44.8535 24.6213 45.9071 24.6213C47.0362 24.6213 47.6853 25.3148 47.6853 26.6015V31.2558H50.2515V25.6457C50.2515 23.5927 48.6637 22.1965 46.594 22.1965ZM37.6733 22.4339V23.5829C38.1883 22.8937 39.1479 22.4344 40.1912 22.4344V25.0015L40.183 25.0012L40.177 25.0009L40.1714 25.0006L40.1607 25.0003C39.1442 25.0003 37.6792 25.7473 37.6792 27.1369V31.2558H35.0429V22.4339H37.6733ZM61.9184 29.7843C61.9184 28.8688 62.6402 28.1267 63.5306 28.1267C64.4209 28.1267 65.1429 28.8688 65.1429 29.7843C65.1429 30.6995 64.4209 31.4417 63.5306 31.4417C62.6402 31.4417 61.9184 30.6995 61.9184 29.7843Z" fill="#17120F"></path>
</svg>