<svg width="71" height="49" viewBox="0 0 71 49" fill="none" xmlns="http://www.w3.org/2000/svg">
    <path d="M64.5 1H6.5C3.46243 1 1 3.46243 1 6.5V42.5C1 45.5376 3.46243 48 6.5 48H64.5C67.5376 48 70 45.5376 70 42.5V6.5C70 3.46243 67.5376 1 64.5 1Z" fill="white" stroke="#D9D9D9"></path>
    <path fill-rule="evenodd" clip-rule="evenodd" d="M20.3 30.9824H17.1888C16.9759 30.9824 16.7948 31.1371 16.7616 31.3472L15.5033 39.3253C15.4783 39.4828 15.6002 39.6247 15.7599 39.6247H17.2452C17.4581 39.6247 17.6392 39.47 17.6724 39.2595L18.0118 37.1077C18.0445 36.8969 18.226 36.7424 18.4385 36.7424H19.4234C21.4729 36.7424 22.6556 35.7506 22.9647 33.7853C23.1038 32.9255 22.9705 32.25 22.5678 31.7767C22.1257 31.2573 21.3413 30.9824 20.3 30.9824ZM20.659 33.8963C20.4889 35.0127 19.6358 35.0127 18.8111 35.0127H18.3416L18.6709 32.9276C18.6905 32.8018 18.7997 32.7089 18.9271 32.7089H19.1422C19.7041 32.7089 20.2341 32.7089 20.508 33.0291C20.6712 33.2203 20.7213 33.5041 20.659 33.8963ZM29.6002 33.8605H28.1103C27.9834 33.8605 27.8737 33.9533 27.8541 34.0794L27.7882 34.4961L27.684 34.3451C27.3615 33.8769 26.6423 33.7205 25.9244 33.7205C24.2779 33.7205 22.8718 34.9674 22.5979 36.7167C22.4556 37.5891 22.6579 38.4234 23.1529 39.0053C23.607 39.5403 24.2567 39.7632 25.0295 39.7632C26.356 39.7632 27.0918 38.9102 27.0918 38.9102L27.0253 39.3243C27.0002 39.4826 27.1221 39.6245 27.2809 39.6245H28.623C28.8365 39.6245 29.0165 39.4698 29.0501 39.2592L29.8554 34.1599C29.8809 34.003 29.7594 33.8605 29.6002 33.8605ZM27.5234 36.7603C27.3796 37.6114 26.704 38.1828 25.8426 38.1828C25.4099 38.1828 25.064 38.0441 24.8421 37.7811C24.6219 37.5201 24.5381 37.1483 24.6082 36.7344C24.7425 35.8904 25.4295 35.3005 26.2779 35.3005C26.7009 35.3005 27.0449 35.4409 27.2714 35.7062C27.4983 35.9742 27.5885 36.3481 27.5234 36.7603ZM36.0379 33.8603H37.5352C37.7449 33.8603 37.8672 34.0954 37.7481 34.2674L32.7685 41.4552C32.6878 41.5717 32.555 41.6409 32.4131 41.6409H30.9177C30.7072 41.6409 30.5842 41.4039 30.7061 41.2315L32.2567 39.0428L30.6076 34.2032C30.5506 34.035 30.6748 33.8603 30.8537 33.8603H32.3249C32.516 33.8603 32.6847 33.9858 32.7398 34.1687L33.615 37.0917L35.6801 34.05C35.7609 33.9312 35.8952 33.8603 36.0379 33.8603Z" fill="#253B80"></path>
    <path fill-rule="evenodd" clip-rule="evenodd" d="M52.2703 39.3248L53.5472 31.2008C53.5667 31.0747 53.676 30.9818 53.8029 30.9814H55.2404C55.3992 30.9814 55.5211 31.1237 55.496 31.2812L54.2368 39.2589C54.204 39.4694 54.0229 39.6242 53.8097 39.6242H52.5259C52.3671 39.6242 52.2453 39.4823 52.2703 39.3248ZM42.4915 30.9818H39.3797C39.1673 30.9818 38.9863 31.1366 38.953 31.3467L37.6947 39.3248C37.6696 39.4823 37.7915 39.6242 37.9505 39.6242H39.5471C39.6955 39.6242 39.8225 39.516 39.8456 39.3686L40.2027 37.1071C40.2355 36.8964 40.417 36.7418 40.6294 36.7418H41.6139C43.6638 36.7418 44.8463 35.7501 45.1556 33.7848C45.2951 32.925 45.161 32.2494 44.7585 31.7761C44.3166 31.2568 43.5328 30.9818 42.4915 30.9818ZM42.8505 33.8957C42.6808 35.0122 41.8278 35.0122 41.0025 35.0122H40.5334L40.8633 32.9271C40.8829 32.8012 40.9911 32.7084 41.1189 32.7084H41.3341C41.8955 32.7084 42.4261 32.7084 42.6998 33.0286C42.8631 33.2197 42.9128 33.5035 42.8505 33.8957ZM51.7909 33.8599H50.3021C50.1741 33.8599 50.0655 33.9528 50.0463 34.0789L49.9804 34.4955L49.8758 34.3446C49.5532 33.8764 48.8345 33.7199 48.1166 33.7199C46.4701 33.7199 45.0644 34.9669 44.7905 36.7162C44.6486 37.5886 44.8501 38.4229 45.345 39.0048C45.8 39.5397 46.4488 39.7627 47.2217 39.7627C48.5482 39.7627 49.2838 38.9096 49.2838 38.9096L49.2175 39.3237C49.1924 39.4821 49.3143 39.624 49.4741 39.624H50.8156C51.028 39.624 51.209 39.4692 51.2423 39.2587L52.048 34.1593C52.0726 34.0025 51.9507 33.8599 51.7909 33.8599ZM49.7143 36.7597C49.5714 37.6109 48.8949 38.1823 48.0332 38.1823C47.6015 38.1823 47.2549 38.0435 47.0328 37.7806C46.8126 37.5195 46.7299 37.1477 46.7991 36.7338C46.9341 35.8898 47.6202 35.2999 48.4686 35.2999C48.8918 35.2999 49.2356 35.4404 49.4623 35.7056C49.6901 35.9736 49.7802 36.3475 49.7143 36.7597Z" fill="#179BD7"></path>
    <path d="M31.8133 28.1276L32.1959 25.6982L31.3439 25.6784H27.2754L30.1028 7.75069C30.1114 7.69657 30.1401 7.6461 30.1817 7.61027C30.2234 7.57444 30.2769 7.55469 30.3325 7.55469H37.1925C39.47 7.55469 41.0416 8.02861 41.8622 8.964C42.2468 9.40282 42.4919 9.86137 42.6104 10.366C42.7346 10.8955 42.7369 11.5281 42.6155 12.2997L42.6066 12.356V12.8504L42.9915 13.0684C43.3155 13.2402 43.5727 13.437 43.7702 13.6622C44.0995 14.0374 44.3123 14.5143 44.4022 15.0796C44.495 15.661 44.4643 16.3529 44.3123 17.1362C44.1367 18.0372 43.8529 18.8219 43.4698 19.4641C43.1171 20.0557 42.6681 20.5464 42.135 20.9268C41.626 21.288 41.0211 21.5624 40.3373 21.7379C39.6746 21.9104 38.9192 21.9975 38.0906 21.9975H37.5567C37.175 21.9975 36.8041 22.135 36.5131 22.3815C36.2213 22.6331 36.0281 22.9767 35.9689 23.3527L35.9287 23.5714L35.2529 27.8533L35.2222 28.0106C35.2142 28.0605 35.2003 28.0853 35.1799 28.1022C35.1615 28.1173 35.1352 28.1276 35.1095 28.1276H31.8133Z" fill="#253B80"></path>
    <path d="M43.3558 12.4141C43.3354 12.545 43.312 12.6789 43.2857 12.8163C42.3808 17.4612 39.2859 19.0658 35.3328 19.0658H33.3202C32.8368 19.0658 32.4294 19.4168 32.3541 19.8936L31.3235 26.4291L31.0317 28.2815C30.9827 28.5946 31.2242 28.8769 31.54 28.8769H35.1099C35.5326 28.8769 35.8916 28.5697 35.9581 28.1529L35.9932 27.9714L36.6654 23.7061L36.7086 23.4722C36.7743 23.0539 37.1341 22.7468 37.5568 22.7468H38.0907C41.5492 22.7468 44.2568 21.3426 45.0482 17.2791C45.3787 15.5816 45.2076 14.1642 44.3328 13.1674C44.0682 12.8668 43.7398 12.6174 43.3558 12.4141Z" fill="#179BD7"></path>
    <path d="M42.4089 12.0356C42.2708 11.9954 42.1281 11.9588 41.9818 11.9259C41.8348 11.8938 41.6841 11.8652 41.5291 11.8404C40.9864 11.7526 40.3919 11.7109 39.7548 11.7109H34.378C34.2456 11.7109 34.1199 11.7409 34.0072 11.795C33.7592 11.9142 33.575 12.149 33.5304 12.4364L32.3864 19.6812L32.3535 19.8926C32.4289 19.4157 32.8363 19.0647 33.3197 19.0647H35.3323C39.2854 19.0647 42.3805 17.4594 43.2852 12.8153C43.3121 12.6778 43.3348 12.5439 43.3553 12.413C43.1264 12.2916 42.8784 12.1878 42.6115 12.0993C42.5458 12.0773 42.4778 12.0561 42.4089 12.0356Z" fill="#222D65"></path>
    <path d="M33.5311 12.4374C33.5758 12.1499 33.7602 11.9152 34.008 11.7967C34.1215 11.7426 34.2465 11.7126 34.3787 11.7126H39.7558C40.3928 11.7126 40.9874 11.7543 41.5299 11.842C41.685 11.8669 41.8358 11.8954 41.9827 11.9276C42.129 11.9605 42.2716 11.9971 42.4099 12.0373C42.4785 12.0578 42.5465 12.079 42.6131 12.1002C42.88 12.1887 43.128 12.2933 43.3568 12.414C43.6261 10.6975 43.3547 9.52873 42.4267 8.47046C41.4036 7.30542 39.5568 6.80664 37.1939 6.80664H30.3337C29.8509 6.80664 29.4393 7.15767 29.3646 7.63525L26.5073 25.7473C26.4509 26.1056 26.7273 26.4289 27.0886 26.4289H31.324L32.3873 19.6821L33.5311 12.4374Z" fill="#253B80"></path>
</svg>