<?xml version="1.0" encoding="UTF-8"?>
<svg version="1.1" xmlns="http://www.w3.org/2000/svg" width="512" height="512">
<path d="M0 0 C1.21652948 -0.00297112 2.43305897 -0.00594224 3.68645298 -0.0090034 C7.0509467 -0.01616098 10.41538933 -0.01886094 13.77988696 -0.01960087 C17.41324095 -0.02145767 21.04658401 -0.02900798 24.67993164 -0.03573608 C32.61788327 -0.04929264 40.55582983 -0.05533951 48.4937911 -0.05974674 C53.4523552 -0.06251283 58.41091735 -0.06675077 63.36948013 -0.07125092 C77.10541346 -0.08343844 90.84134524 -0.09373984 104.57728386 -0.09712601 C105.45562211 -0.09734557 106.33396036 -0.09756514 107.23891491 -0.09779136 C108.11931358 -0.09800964 108.99971225 -0.09822791 109.90678966 -0.09845281 C111.69071825 -0.09889627 113.47464685 -0.09934283 115.25857544 -0.09979248 C116.14345934 -0.10001391 117.02834323 -0.10023534 117.9400418 -0.10046348 C132.28276235 -0.10441271 146.62543214 -0.12187287 160.96813308 -0.145152 C175.70263186 -0.16887364 190.43710516 -0.18132817 205.17162335 -0.18249393 C213.4409602 -0.18341005 221.71023082 -0.18914697 229.97954941 -0.20731354 C237.01946591 -0.22272525 244.0592957 -0.22782855 251.09922586 -0.21957543 C254.68922722 -0.21567316 258.27905402 -0.21657783 261.86903381 -0.23063278 C265.7651405 -0.24574654 269.66100254 -0.23749297 273.55712891 -0.22705078 C274.68564109 -0.23510719 275.81415327 -0.24316359 276.97686279 -0.25146413 C286.79573353 -0.18993743 295.20555781 1.66398064 302.4992981 8.67169189 C308.31133874 14.93957887 310.28909298 21.45425154 310.24612427 29.93341064 C310.24656235 30.66609665 310.24700043 31.39878265 310.24745178 32.15367126 C310.24538257 34.54537789 310.22214178 36.93635965 310.19851685 39.32794189 C310.19291421 40.99802264 310.18864727 42.66810834 310.18565369 44.3381958 C310.17425742 48.71124132 310.14483586 53.08398288 310.11154175 57.45690918 C310.08072769 61.92820119 310.06712423 66.39954282 310.05203247 70.87091064 C310.01996056 79.62755978 309.96882824 88.38396291 309.9055481 97.14044189 C310.59068481 97.11949463 311.27582153 97.09854736 311.98171997 97.07696533 C315.12284332 96.9931879 318.26373073 96.94158776 321.4055481 96.89044189 C322.48320435 96.85692627 323.5608606 96.82341064 324.6711731 96.78887939 C333.09384712 96.68616386 338.57276974 97.95578703 344.7180481 103.82794189 C350.15208709 112.05662951 350.38289359 120.35214598 350.29666138 129.99688721 C350.28057748 132.13653306 350.2965746 134.27429078 350.31570435 136.41387939 C350.32955322 145.11944512 350.29620741 153.14120271 344.4680481 160.01544189 C343.6224231 160.71669189 342.7767981 161.41794189 341.9055481 162.14044189 C341.0392981 162.97575439 341.0392981 162.97575439 340.1555481 163.82794189 C331.30907419 168.98838501 319.31753376 167.14044189 309.9055481 167.14044189 C309.9055481 194.86044189 309.9055481 222.58044189 309.9055481 251.14044189 C317.8255481 251.14044189 325.7455481 251.14044189 333.9055481 251.14044189 C342.99497899 255.68515734 342.99497899 255.68515734 345.2805481 258.45294189 C345.74203247 258.98532471 346.20351685 259.51770752 346.6789856 260.06622314 C349.70867549 265.18967962 350.16056026 270.6373081 350.1711731 276.47247314 C350.17308655 277.14912521 350.175 277.82577728 350.17697144 278.52293396 C350.17832347 279.94565201 350.17469616 281.3683828 350.16629028 282.79107666 C350.15562672 284.93711962 350.16619265 287.082316 350.1789856 289.22833252 C350.18327504 295.95330346 350.05822957 302.32680065 348.13894653 308.83843994 C347.79950046 312.18638658 348.96958456 314.92561061 349.9055481 318.14044189 C350.25498107 322.70698726 350.23522591 327.26826209 350.22122192 331.8460083 C350.21806591 334.00326293 350.2415537 336.1591378 350.26687622 338.31622314 C350.30828561 347.2781845 349.72071925 354.75208686 344.7805481 362.45294189 C337.6713331 369.09851244 330.24456556 369.69888285 320.8430481 369.39044189 C319.78666138 369.37239502 318.73027466 369.35434814 317.64187622 369.33575439 C315.06212259 369.28906202 312.48433992 369.22359778 309.9055481 369.14044189 C309.91554085 370.33195107 309.91554085 370.33195107 309.92573547 371.54753113 C309.98605941 379.06465887 310.03162999 386.58166782 310.06098461 394.09897518 C310.0765839 397.96291947 310.09771594 401.82666233 310.13186646 405.69049072 C310.16466644 409.42525247 310.18244417 413.1598215 310.19017982 416.89471626 C310.19568657 418.3135538 310.20643915 419.7323818 310.22273827 421.1511364 C310.32627017 430.5438837 310.40276395 439.97651243 303.8430481 447.39044189 C297.13651955 454.20398938 290.07844018 456.69612599 280.60936081 456.80449682 C279.44826259 456.7926611 278.28716437 456.78082537 277.09088135 456.76863098 C275.20416397 456.77927256 275.20416397 456.77927256 273.27933109 456.79012913 C269.81316385 456.80894941 266.34770815 456.79687652 262.88155961 456.77940619 C259.13364946 456.76597965 255.38583983 456.78148826 251.63793945 456.79322815 C244.30519173 456.81157096 236.97271116 456.80311454 229.63997187 456.78513993 C223.67728874 456.7710906 217.71467792 456.76722613 211.75197983 456.7705822 C210.4769923 456.77129836 210.4769923 456.77129836 209.17624744 456.77202899 C207.44925554 456.77305537 205.72226365 456.77411073 203.99527179 456.77519476 C188.73630669 456.7837553 173.47747018 456.76710901 158.21853638 456.73736572 C143.43006995 456.70854008 128.64178882 456.70144081 113.853302 456.71685791 C97.73219176 456.73364138 81.61116943 456.73763163 65.49005687 456.72014755 C63.76895389 456.71830326 62.0478509 456.71646853 60.32674789 456.71464348 C59.48004035 456.71373139 58.63333281 456.7128193 57.76096747 456.71187957 C51.81029664 456.70628672 45.85966888 456.70956975 39.9090004 456.71618843 C32.64997307 456.72394211 25.39112775 456.71709643 18.13213696 456.69201339 C14.43235328 456.67956411 10.73285227 456.67331567 7.03305817 456.68455505 C3.01317333 456.69653564 -1.00597613 456.67724789 -5.02581787 456.65510559 C-6.18245465 456.66334636 -7.33909143 456.67158713 -8.53077781 456.68007761 C-22.39244376 456.53966155 -32.74669493 451.76701036 -42.90304565 442.48809814 C-53.97323471 430.72781938 -55.397724 416.23571144 -55.35514832 400.90245056 C-55.35817197 399.35643337 -55.36206253 397.81041767 -55.36674088 396.26440459 C-55.37700211 392.03228997 -55.37484384 387.80026024 -55.37056029 383.56813872 C-55.36808964 378.99746329 -55.37711146 374.42680811 -55.38459778 369.85614014 C-55.3973376 360.90774521 -55.39913934 351.9593803 -55.39679752 343.01097783 C-55.39501332 335.73583396 -55.39676618 328.46069919 -55.40102196 321.18555641 C-55.40161715 320.14948003 -55.40221234 319.11340365 -55.40282556 318.04593102 C-55.40403733 315.94101859 -55.40525147 313.83610618 -55.40646794 311.73119376 C-55.41734081 291.9974294 -55.41518223 272.26368213 -55.40908309 252.5299168 C-55.40391474 234.48726559 -55.41516768 216.44466839 -55.43418131 198.40202787 C-55.45356584 179.86495647 -55.46181459 161.3279106 -55.45805806 142.790829 C-55.45614688 132.38806335 -55.45862547 121.98534366 -55.4727726 111.58258629 C-55.48469523 102.7260891 -55.4860814 93.86966616 -55.47398243 85.01316794 C-55.46809983 80.49725129 -55.46697717 75.98147038 -55.47898483 71.46556282 C-55.48986409 67.32581117 -55.48671611 63.18630825 -55.47272315 59.04656813 C-55.47008182 57.554709 -55.47242491 56.06283024 -55.48045901 54.57099041 C-55.56513624 37.66431908 -52.24472196 24.92561837 -40.55148315 12.43731689 C-28.9172107 1.56139924 -15.20930275 -0.01163186 0 0 Z M-26.30148315 28.33184814 C-32.24280556 34.32494678 -34.22082094 41.36611459 -34.21749973 49.6126833 C-34.21949078 50.70597456 -34.22148183 51.79926583 -34.22353321 52.92568713 C-34.22062037 54.12120785 -34.21770753 55.31672856 -34.21470642 56.54847717 C-34.21556085 57.82273408 -34.21641527 59.09699099 -34.21729559 60.40986174 C-34.21953153 63.94446582 -34.21553155 67.47903959 -34.21051753 71.01363981 C-34.20620032 74.82613014 -34.20766035 78.63861875 -34.2084198 82.45111084 C-34.20894423 89.05575274 -34.20580589 95.66038477 -34.20018196 102.26502419 C-34.19205599 111.81423171 -34.18945061 121.36343446 -34.18819397 130.91264506 C-34.18600518 146.40549086 -34.17934977 161.89833138 -34.16989136 177.39117432 C-34.16071278 192.44130426 -34.15363412 207.49143277 -34.14938354 222.54156494 C-34.14912082 223.46920695 -34.1488581 224.39684896 -34.14858741 225.35260133 C-34.14728238 230.00629431 -34.14601867 234.6599873 -34.14477551 239.31368029 C-34.13440828 277.92260451 -34.11679465 316.53152286 -34.0944519 355.14044189 C-33.21402222 354.79110596 -32.33359253 354.44177002 -31.42648315 354.08184814 C-30.26503784 353.62680908 -29.10359253 353.17177002 -27.9069519 352.70294189 C-26.75839722 352.25048096 -25.60984253 351.79802002 -24.42648315 351.33184814 C-15.56553199 348.16351273 -8.07253933 348.69478008 1.9055481 348.14044189 C1.9055481 240.23044189 1.9055481 132.32044189 1.9055481 21.14044189 C-13.62455155 21.13591682 -13.62455155 21.13591682 -26.30148315 28.33184814 Z M14.9055481 21.14044189 C14.9055481 129.05044189 14.9055481 236.96044189 14.9055481 348.14044189 C105.3255481 348.14044189 195.7455481 348.14044189 288.9055481 348.14044189 C288.99292425 291.00763602 288.99292425 291.00763602 289.05203247 233.87481689 C289.05790635 226.17885316 289.06396786 218.48288961 289.07034302 210.78692627 C289.07113426 209.8223242 289.07192551 208.85772213 289.07274073 207.86388969 C289.08579891 192.27847944 289.10945601 176.6931023 289.13700648 161.1077117 C289.16503256 145.12027901 289.18171842 129.13286369 289.18781358 113.14540744 C289.19193584 103.27535612 289.20496906 93.40539834 289.2292975 83.5353758 C289.24512017 76.77283162 289.24995635 70.01033599 289.24605223 63.24777463 C289.24412526 59.34250101 289.2471387 55.43739116 289.26316452 51.53214645 C289.28039225 47.30326455 289.27453411 43.07473402 289.26631165 38.8458252 C289.27505017 37.60459121 289.28378869 36.36335722 289.29279202 35.08451009 C289.2838323 33.39008373 289.2838323 33.39008373 289.27469158 31.66142654 C289.27583074 30.68478585 289.2769699 29.70814517 289.27814358 28.7019093 C288.8378794 25.67524257 288.02144242 24.32372476 285.9055481 22.14044189 C283.05363445 21.18980401 281.30677345 21.01601348 278.35094929 21.01739407 C277.41113146 21.01540319 276.47131363 21.01341232 275.50301647 21.01136112 C273.95240505 21.01573012 273.95240505 21.01573012 272.37046814 21.02018738 C271.27616486 21.01933136 270.18186157 21.01847534 269.05439758 21.01759338 C265.35738523 21.01593153 261.66041767 21.02147264 257.96340942 21.0269165 C255.27974441 21.02722267 252.5960821 21.02713408 249.91241741 21.02655125 C243.43851303 21.02601896 236.96462248 21.03064236 230.49072165 21.03705258 C223.00444335 21.04424376 215.51817339 21.04504684 208.03189087 21.0458374 C188.26060775 21.05109085 168.48932771 21.06505192 148.7180481 21.07794189 C104.5599231 21.09856689 60.4017981 21.11919189 14.9055481 21.14044189 Z M309.9055481 118.14044189 C309.9055481 127.38044189 309.9055481 136.62044189 309.9055481 146.14044189 C314.3296106 146.17137939 314.3296106 146.17137939 318.8430481 146.20294189 C319.77367065 146.2120459 320.70429321 146.2211499 321.66311646 146.23052979 C322.75571777 146.23427612 322.75571777 146.23427612 323.87039185 146.23809814 C324.61925659 146.24333496 325.36812134 146.24857178 326.13967896 146.25396729 C327.93222549 146.33385942 327.93222549 146.33385942 328.9055481 145.14044189 C328.99312812 143.14079207 329.01251386 141.1380808 329.00320435 139.13653564 C328.99998169 137.92159424 328.99675903 136.70665283 328.99343872 135.45489502 C328.98505981 134.17550049 328.97668091 132.89610596 328.9680481 131.57794189 C328.96128052 129.65304932 328.96128052 129.65304932 328.95437622 127.68927002 C328.94254365 124.50630769 328.92460754 121.32336915 328.9055481 118.14044189 C322.6355481 118.14044189 316.3655481 118.14044189 309.9055481 118.14044189 Z M309.9055481 272.14044189 C309.9055481 281.05044189 309.9055481 289.96044189 309.9055481 299.14044189 C316.1755481 299.14044189 322.4455481 299.14044189 328.9055481 299.14044189 C328.9055481 290.23044189 328.9055481 281.32044189 328.9055481 272.14044189 C322.6355481 272.14044189 316.3655481 272.14044189 309.9055481 272.14044189 Z M309.9055481 320.14044189 C309.9055481 329.38044189 309.9055481 338.62044189 309.9055481 348.14044189 C316.1755481 348.14044189 322.4455481 348.14044189 328.9055481 348.14044189 C328.93236969 343.66123592 328.95229987 339.18218838 328.9680481 334.70294189 C328.976427 333.42354736 328.98480591 332.14415283 328.99343872 330.82598877 C328.99666138 329.61104736 328.99988403 328.39610596 329.00320435 327.14434814 C329.00844116 326.01843262 329.01367798 324.89251709 329.01907349 323.73248291 C329.20100258 321.21073319 329.20100258 321.21073319 327.9055481 320.14044189 C326.56287397 320.05412315 325.21580488 320.03337716 323.87039185 320.04278564 C323.14199097 320.0452832 322.41359009 320.04778076 321.66311646 320.050354 C320.7324939 320.05945801 319.80187134 320.06856201 318.8430481 320.07794189 C315.8936731 320.09856689 312.9442981 320.11919189 309.9055481 320.14044189 Z M-26.9694519 376.20294189 C-33.78278355 383.93438206 -34.44695932 392.3361631 -34.5319519 402.26544189 C-34.54218384 403.19558105 -34.55241577 404.12572021 -34.56295776 405.08404541 C-34.44980304 414.00269483 -32.48548265 422.56961232 -26.0944519 429.14044189 C-20.97044658 433.01102126 -16.55036826 435.26186141 -10.05127048 435.27466297 C-9.00274546 435.27912082 -7.95422044 435.28357866 -6.87392193 435.28817159 C-5.71810445 435.28798723 -4.56228696 435.28780286 -3.3714447 435.28761292 C-2.14663798 435.2912896 -0.92183126 435.29496629 0.34009081 435.29875439 C3.74607595 435.3078839 7.15201289 435.31249148 10.55800569 435.3151437 C14.22882803 435.319046 17.8996364 435.3286242 21.57044983 435.33735657 C30.43692051 435.35712009 39.30339233 435.36718572 48.16987953 435.37608436 C52.34292971 435.38046627 56.51597861 435.38583322 60.68902779 435.39107323 C74.55605652 435.40808318 88.42308446 435.42257914 102.29012203 435.42982197 C105.88873737 435.43173192 109.4873527 435.43365225 113.08596802 435.43560791 C113.9804067 435.43609165 114.87484539 435.43657539 115.79638828 435.43707379 C130.29795356 435.44538085 144.79943653 435.47073017 159.30096584 435.50318859 C174.18108509 435.53622367 189.06116245 435.55426739 203.94131857 435.55746621 C212.29944658 435.55963429 220.65745446 435.56842669 229.0155468 435.59392738 C236.13074441 435.61558571 243.24579271 435.62370882 250.36101954 435.6139606 C253.99295557 435.60940205 257.62458321 435.61139161 261.25647736 435.63072205 C265.18963365 435.65147578 269.12236028 435.6414132 273.05555725 435.62818909 C274.20914401 435.63915833 275.36273078 435.65012758 276.55127472 435.66142923 C277.60240749 435.65284833 278.65354026 435.64426744 279.73652554 435.63542652 C281.09880108 435.63689173 281.09880108 435.63689173 282.48859733 435.63838655 C285.70793417 434.97513284 286.9087075 433.70479621 288.9055481 431.14044189 C289.38879015 427.6368784 289.38879015 427.6368784 289.1555481 423.89044189 C289.11945435 422.62716064 289.0833606 421.36387939 289.0461731 420.06231689 C288.99976685 419.09809814 288.9533606 418.13387939 288.9055481 417.14044189 C288.30303882 417.13984481 287.70052954 417.13924772 287.0797624 417.13863254 C251.37274343 417.10274115 215.66581606 417.04610614 179.9588761 416.96252094 C175.67181333 416.95250345 171.38475018 416.94265932 167.09768677 416.93292236 C166.24420712 416.93098099 165.39072746 416.92903962 164.51138479 416.92703941 C150.69068407 416.89601555 136.86999996 416.87903769 123.04927098 416.86724767 C108.86866416 416.85483811 94.68814452 416.82734113 80.50759274 416.78582883 C71.75691494 416.76068781 63.00638171 416.74732505 54.25566728 416.74901232 C48.25554243 416.74904207 42.25556489 416.73442111 36.25549745 416.70827761 C32.7933576 416.69362508 29.33151983 416.68543412 25.86935425 416.69463921 C22.11424376 416.70125305 18.36001719 416.68341898 14.60499573 416.65942383 C12.96636374 416.67106445 12.96636374 416.67106445 11.29462808 416.68294024 C4.94994693 416.61104148 1.07763947 415.90066378 -4.0944519 412.14044189 C-8.07764338 407.36219369 -8.69362877 401.71482299 -8.7038269 395.70294189 C-8.72036316 394.9373999 -8.73689941 394.17185791 -8.75393677 393.38311768 C-8.80202297 390.96880766 -8.82369808 388.55512545 -8.8444519 386.14044189 C-8.8726448 384.49067139 -8.90257682 382.84092963 -8.93429565 381.19122314 C-9.00777005 377.17434788 -9.05758362 373.15781311 -9.0944519 369.14044189 C-15.84645483 369.14044189 -21.92836348 371.67358383 -26.9694519 376.20294189 Z M3.9055481 369.14044189 C3.9055481 372.11044189 3.9055481 375.08044189 3.9055481 378.14044189 C4.66038136 378.14190845 5.41521463 378.14337502 6.19292164 378.14488602 C24.54518557 378.18191006 42.89725846 378.24086602 61.24937153 378.32434464 C70.12426883 378.36418311 78.99907684 378.39655109 87.87405396 378.41143799 C95.60795086 378.42442968 103.3416517 378.45133044 111.0754382 378.49505496 C115.17186923 378.517726 119.26805793 378.53334922 123.36455727 378.53232574 C127.21833435 378.53158243 131.07157461 378.54939937 134.92521286 378.58160973 C136.34136572 378.59014626 137.75757854 378.5918333 139.17374611 378.58624458 C141.10388716 378.57964067 143.03406501 378.59982253 144.96409607 378.62145996 C146.58599082 378.62699072 146.58599082 378.62699072 148.24065113 378.63263321 C150.9055481 379.14044189 150.9055481 379.14044189 152.7886076 380.97365952 C154.3597101 384.02148276 153.83822251 385.91195355 152.9055481 389.14044189 C150.20906311 390.48868439 148.10477371 390.28065094 145.08435059 390.29866028 C143.84472061 390.3084491 142.60509064 390.31823792 141.32789612 390.32832336 C139.94671669 390.33422793 138.56553687 390.34003835 137.18435669 390.34576416 C135.73580138 390.35534016 134.28724888 390.36535008 132.83869934 390.37576294 C128.89887873 390.4028482 124.95904609 390.42383812 121.01918364 390.44376493 C116.90451066 390.46560218 112.78987491 390.49300191 108.67523193 390.51982117 C100.88026448 390.56977867 93.0852764 390.61470614 85.29026854 390.65784353 C76.41733138 390.7071898 67.54443155 390.76211759 58.67153049 390.81752312 C40.41623767 390.9313901 22.16090964 391.03821885 3.9055481 391.14044189 C3.85138622 392.7442353 3.81268172 394.34855596 3.7805481 395.95294189 C3.75734497 396.84626221 3.73414185 397.73958252 3.7102356 398.65997314 C3.72268983 401.39446904 3.72268983 401.39446904 5.9055481 404.14044189 C8.02144065 404.59277728 8.02144065 404.59277728 10.51612759 404.515172 C11.98235173 404.52598182 11.98235173 404.52598182 13.47819656 404.53701001 C14.55979004 404.52963573 15.64138352 404.52226144 16.75575256 404.5146637 C18.47023278 404.52062531 18.47023278 404.52062531 20.21934897 404.52670735 C23.4016017 404.53469301 26.58350643 404.52913981 29.76573932 404.51795685 C33.19389078 404.50914143 36.62200463 404.51755066 40.05015564 404.52381897 C46.76998156 404.53332491 53.48970037 404.52669132 60.20951837 404.51455603 C68.02948262 404.50095834 75.84942114 404.50257193 83.6693942 404.50468936 C97.61979762 404.50788192 111.57015004 404.49619666 125.52053833 404.47662354 C139.06710361 404.4576219 152.61360911 404.4505347 166.16018677 404.45611572 C180.89859929 404.46216977 195.6369855 404.46200303 210.37539583 404.45062989 C211.94620772 404.44942256 213.51701961 404.44821657 215.0878315 404.44701195 C215.86077026 404.44640841 216.63370902 404.44580487 217.43007017 404.44518304 C222.88492649 404.44129891 228.33977302 404.44169945 233.79463005 404.44359779 C240.44031308 404.44571717 247.08594366 404.44051538 253.7316119 404.42598424 C257.1243422 404.41872671 260.51699602 404.41467472 263.90973282 404.4192276 C267.58269426 404.4224307 271.25542253 404.41341478 274.92835999 404.40113831 C276.00772274 404.40491763 277.0870855 404.40869695 278.19915622 404.4125908 C279.17924673 404.40675861 280.15933724 404.40092641 281.16912746 404.39491749 C282.44165281 404.39361732 282.44165281 404.39361732 283.73988575 404.39229089 C286.2001034 404.27259181 286.2001034 404.27259181 288.9055481 402.14044189 C289.27015263 399.47390284 289.27015263 399.47390284 289.0930481 396.51544189 C289.06597778 395.51255127 289.03890747 394.50966064 289.01101685 393.47637939 C288.97621216 392.70552002 288.94140747 391.93466064 288.9055481 391.14044189 C288.1833609 391.13235504 287.46117371 391.12426819 286.71710205 391.11593628 C279.91871799 391.03806897 273.12051296 390.95080236 266.3223896 390.85291481 C262.82720044 390.80292016 259.33204196 390.75659076 255.83670044 390.71856689 C251.82039102 390.67471645 247.80445323 390.6150523 243.7883606 390.55450439 C241.90082565 390.53717758 241.90082565 390.53717758 239.97515869 390.51950073 C238.81410614 390.49963104 237.65305359 390.47976135 236.45681763 390.45928955 C235.43089508 390.44596588 234.40497253 390.43264221 233.34796143 390.41891479 C230.9055481 390.14044189 230.9055481 390.14044189 228.9055481 388.14044189 C228.35107423 382.92838756 228.35107423 382.92838756 230.07676697 380.47605896 C232.60322059 378.63090947 234.36467713 378.74243826 237.47854614 378.70806885 C238.61950241 378.68827469 239.76045868 378.66848053 240.93598938 378.64808655 C242.16731094 378.64169662 243.39863251 378.6353067 244.66726685 378.62872314 C246.55866142 378.60179634 246.55866142 378.60179634 248.48826599 378.57432556 C251.83710323 378.52928766 255.18557229 378.49701449 258.53457642 378.47088623 C261.95329095 378.44108424 265.3717732 378.39455279 268.79031372 378.34942627 C275.4952848 378.26432508 282.20027103 378.19604358 288.9055481 378.14044189 C288.9055481 375.17044189 288.9055481 372.20044189 288.9055481 369.14044189 C194.8555481 369.14044189 100.8055481 369.14044189 3.9055481 369.14044189 Z " fill="#000000" transform="translate(106.09445190429688,55.85955810546875)"/>
<path d="M0 0 C0.67861399 -0.00467997 1.35722797 -0.00935994 2.05640602 -0.01418173 C4.32344914 -0.02611889 6.58988631 -0.01667995 8.85693359 -0.00723267 C10.48500928 -0.01129895 12.1130822 -0.01664115 13.7411499 -0.02316284 C18.15847291 -0.03683552 22.57558563 -0.03153801 26.99291229 -0.02202559 C31.61637436 -0.01442875 36.23981847 -0.02147467 40.86328125 -0.02618408 C48.62747428 -0.03164156 56.39158169 -0.02445022 64.15576172 -0.01016235 C73.13139266 0.00616415 82.10681916 0.00087564 91.08244514 -0.01564157 C98.78958447 -0.02925665 106.49666227 -0.03117599 114.20380974 -0.02332556 C118.80658189 -0.01864917 123.40925795 -0.01802327 128.01202393 -0.02793503 C132.33933327 -0.03660273 136.66637909 -0.03058642 140.99365997 -0.01325226 C142.58154106 -0.00928636 144.16944434 -0.01042324 145.75731659 -0.01704025 C147.92542424 -0.02524205 150.09268824 -0.0149517 152.26074219 0 C154.08029922 0.00169662 154.08029922 0.00169662 155.93661499 0.00342751 C159.73094509 0.45194281 162.40923298 1.65981281 165.13037109 4.38095093 C165.40265992 6.06499815 165.64790822 7.75344582 165.88037109 9.44345093 C167.34660223 17.64584539 170.84678235 23.30012125 177.67333984 28.14266968 C181.67113085 30.15745465 185.88124732 30.83419937 190.27490234 31.54501343 C193.13037109 32.38095093 193.13037109 32.38095093 194.78460789 33.85671234 C196.83247473 37.69788179 196.54720264 41.31481679 196.51805115 45.60470581 C196.52612945 47.02054986 196.52612945 47.02054986 196.53437096 48.46499681 C196.54870687 51.63568089 196.54153288 54.80595079 196.53442383 57.97665405 C196.5401244 60.24659055 196.54708744 62.51652417 196.55522156 64.78645325 C196.5732015 70.9578169 196.57197561 77.12903875 196.56627917 83.30042076 C196.56319465 88.44736972 196.56927147 93.59429116 196.57531792 98.74123621 C196.59018147 111.5742674 196.5865362 124.40719877 196.57445461 137.24022609 C196.56451947 148.38885823 196.57746683 159.53732448 196.6013888 170.68593103 C196.62576183 182.13086778 196.63499217 193.57569793 196.62873608 205.02066565 C196.62535862 211.44717369 196.62783403 217.87354461 196.64498711 224.30003357 C196.6604071 230.34111935 196.65655562 236.38188728 196.63768196 242.42296028 C196.63398252 244.64338684 196.63714369 246.8638367 196.64756775 249.08424187 C196.66068642 252.10893102 196.64931109 255.13255365 196.63157654 258.15719604 C196.64598405 259.48383986 196.64598405 259.48383986 196.66068262 260.83728456 C196.58892875 266.76050833 196.58892875 266.76050833 194.25627232 269.91666412 C191.7112794 271.66961459 189.94113068 271.99925743 186.88037109 272.31845093 C180.09335979 273.35145398 175.58615908 275.85879029 170.81787109 280.75595093 C167.16326246 286.44089769 165.72863167 291.62403261 164.75537109 298.24423218 C164.13037109 300.38095093 164.13037109 300.38095093 161.13037109 302.38095093 C158.11744785 302.63821983 158.11744785 302.63821983 154.34266663 302.64837646 C153.30174926 302.65517313 153.30174926 302.65517313 152.23980325 302.66210711 C149.90906917 302.67479112 147.57856756 302.6731282 145.24780273 302.67147827 C143.57899168 302.67746099 141.9101834 302.68426594 140.24137878 302.6918335 C135.70422772 302.70952574 131.16715206 302.7141902 126.62996984 302.71546507 C122.84503328 302.71736239 119.06011435 302.7247179 115.27518457 302.73180926 C106.34742844 302.74810267 97.41971265 302.7529773 88.49194336 302.7515564 C79.27545854 302.75035434 70.05920767 302.77146669 60.84278208 302.80304372 C52.9352823 302.82917298 45.02785909 302.83992512 37.12031645 302.83864558 C32.39509484 302.838135 27.67008112 302.84387076 22.94490242 302.86500168 C18.50185955 302.88432805 14.05922408 302.88454719 9.61616707 302.86996841 C7.98431811 302.8678723 6.35244402 302.87262879 4.72063828 302.88468933 C2.49496256 302.90007542 0.27070335 302.8908797 -1.9549408 302.87542725 C-3.20099563 302.87651678 -4.44705046 302.87760632 -5.73086452 302.87872887 C-9.45334502 302.28837915 -10.62308387 301.35053153 -12.86962891 298.38095093 C-13.52197266 295.86532593 -13.52197266 295.86532593 -13.80712891 293.13095093 C-14.83879499 286.35272377 -17.36228446 281.88829537 -22.18212891 277.06845093 C-27.74650269 273.57454181 -33.53268684 272.08184633 -39.98681641 271.10360718 C-41.86962891 270.38095093 -41.86962891 270.38095093 -42.9710508 268.59017366 C-43.90296696 266.29898678 -44.12278923 264.76755119 -44.12969112 262.31073093 C-44.13675672 261.50466925 -44.14382231 260.69860757 -44.15110201 259.86811978 C-44.14868692 258.98826363 -44.14627184 258.10840749 -44.14378357 257.20188904 C-44.14902025 256.26278212 -44.15425693 255.32367521 -44.15965229 254.35611051 C-44.17468331 251.20166882 -44.17535813 248.0473889 -44.17602539 244.89291382 C-44.18364468 242.63445257 -44.19207178 240.37599391 -44.20124817 238.11753845 C-44.22322029 231.97713458 -44.23199551 225.8367805 -44.23707461 219.69634175 C-44.24071439 215.86231279 -44.24695241 212.02829696 -44.254076 208.19427299 C-44.27353223 197.57840354 -44.29004539 186.96254499 -44.29295254 176.34665775 C-44.29323389 175.32792931 -44.29323389 175.32792931 -44.29352093 174.2886205 C-44.29388718 172.91183404 -44.29425088 171.53504759 -44.29461204 170.15826113 C-44.29479485 169.47482738 -44.29497766 168.79139362 -44.29516602 168.08724976 C-44.29534656 167.40298192 -44.29552711 166.71871408 -44.29571313 166.01371085 C-44.29925646 154.92069651 -44.32629014 143.82787609 -44.3636639 132.73492903 C-44.40173003 121.34536618 -44.42066861 109.95593097 -44.42141205 98.56629175 C-44.42220644 92.17155927 -44.43102011 85.77707706 -44.45940971 79.38240242 C-44.48550508 73.37000798 -44.48784309 67.35807283 -44.47175407 61.34564781 C-44.4699329 59.13691841 -44.47669013 56.9281631 -44.49257278 54.71949005 C-44.51291058 51.7081095 -44.50255356 48.69835466 -44.48435974 45.68699646 C-44.49755971 44.80937104 -44.51075968 43.93174562 -44.52435964 43.02752548 C-44.46364247 38.639135 -44.285785 36.91307602 -41.49453831 33.34400082 C-38.62248575 31.19612385 -37.08549378 30.73450273 -33.55712891 30.44345093 C-26.37871838 29.41796371 -22.37703277 26.02032341 -17.49462891 20.88095093 C-15.26048156 17.44380117 -14.16872549 14.14229746 -13.48291016 10.10360718 C-13.34240234 9.30825562 -13.20189453 8.51290405 -13.05712891 7.69345093 C-12.89277344 6.57390015 -12.89277344 6.57390015 -12.72509766 5.43173218 C-10.50845212 0.11785588 -5.07601147 0.00473304 0 0 Z M0.13037109 13.38095093 C-1.51962891 17.34095093 -3.16962891 21.30095093 -4.86962891 25.38095093 C-11.63779453 35.60520113 -19.4100096 40.56107783 -30.86962891 44.38095093 C-30.86962891 115.33095093 -30.86962891 186.28095093 -30.86962891 259.38095093 C-27.56962891 260.37095093 -24.26962891 261.36095093 -20.86962891 262.38095093 C-11.11775556 267.22902511 -5.73468758 274.43720906 -1.86962891 284.38095093 C-1.20962891 286.03095093 -0.54962891 287.68095093 0.13037109 289.38095093 C50.29037109 289.38095093 100.45037109 289.38095093 152.13037109 289.38095093 C153.78037109 285.42095093 155.43037109 281.46095093 157.13037109 277.38095093 C162.44301165 269.1168434 168.85591488 263.70575599 178.13037109 260.38095093 C179.78037109 260.05095093 181.43037109 259.72095093 183.13037109 259.38095093 C183.13037109 188.43095093 183.13037109 117.48095093 183.13037109 44.38095093 C179.17037109 42.73095093 175.21037109 41.08095093 171.13037109 39.38095093 C160.45364027 32.51733826 157.18153723 25.50374966 152.13037109 13.38095093 C101.97037109 13.38095093 51.81037109 13.38095093 0.13037109 13.38095093 Z " fill="#000000" transform="translate(181.86962890625,89.61904907226563)"/>
<path d="M0 0 C2.20189678 2.13308751 3.65896649 4.41185696 5.19140625 7.0546875 C10.18243255 15.27352852 17.9234251 22.00466165 27.36328125 24.59765625 C39.90820443 26.5119186 51.29080548 25.32799609 61.8125 17.8125 C66.22179432 14.15121096 69.06736363 9.87254801 72 5 C73.9375 1.9375 73.9375 1.9375 76 0 C79.5 -0.6875 79.5 -0.6875 83 0 C89.36253994 6.36253994 90.17906899 16.81113086 90.4375 25.375 C90.03854869 41.63226587 83.71774937 54.02595445 72.08984375 65.1171875 C69.7992722 67.18084262 67.4768308 69.16235134 65 71 C65.556875 71.40089844 66.11375 71.80179687 66.6875 72.21484375 C77.08200343 79.95804647 83.27175125 87.86830913 88 100 C88.268125 100.67546875 88.53625 101.3509375 88.8125 102.046875 C92.7691143 114.46624766 90.18470035 129.67396406 84.4921875 141 C79.51428058 149.33509995 72.7850142 156.22402172 65 162 C65.556875 162.40089844 66.11375 162.80179688 66.6875 163.21484375 C77.08200343 170.95804647 83.27175125 178.86830913 88 191 C88.268125 191.67546875 88.53625 192.3509375 88.8125 193.046875 C92.41271417 204.34754726 90.47880189 218.28982157 86 229 C83.82418447 231.83931972 83.27259 231.96035055 79.5625 232.5 C76 232 76 232 74 230.125 C72.8467166 228.32299468 71.70371696 226.51412865 70.58984375 224.6875 C65.05180069 216.09895095 57.42828837 210.27811027 47.50390625 207.4375 C35.96840593 205.42193676 25.39385114 206.98821932 15.75 213.75 C9.75916581 218.621397 5.25176608 223.98303108 2 231 C-1.16736204 232.58368102 -3.5153015 232.42056706 -7 232 C-13.26396613 225.73603387 -14.16932056 215.45155501 -14.375 207 C-13.94724026 190.79859987 -7.61565324 178.17353495 4 167 C6.27224134 165.15224331 8.5267526 163.57866855 11 162 C10.27683594 161.43410156 9.55367187 160.86820313 8.80859375 160.28515625 C-3.23652028 150.48488962 -11.82887666 138.65898694 -14 123 C-15.03344916 106.58405758 -11.4387787 93.15032266 -0.5625 80.625 C3.0062067 76.8264444 6.61284142 73.80031399 11 71 C9.91525391 70.15308594 9.91525391 70.15308594 8.80859375 69.2890625 C-3.55973718 59.20861476 -11.76167635 47.96538816 -14 32 C-14.67772302 21.23463045 -14.26864136 10.16929802 -8 1 C-5.12529507 -0.43735246 -3.18105412 -0.38172649 0 0 Z M-1 23 C-1.78069114 31.3924298 0.81459485 40.44428271 5.6875 47.3125 C12.53894405 55.45504531 20.35299042 61.90931448 31 64 C43.68380419 64.98562045 53.47797269 62.68551565 63.7109375 55.03515625 C71.33582619 48.25603166 76.28086481 38.66291599 77.23828125 28.4609375 C77.28114172 26.07415012 77.28114172 26.07415012 77 23 C76.57332031 23.35191406 76.14664063 23.70382813 75.70703125 24.06640625 C60.78776038 35.84801603 46.62371592 39.54233672 28 38 C16.96315589 35.90228449 7.88588099 29.56782508 -1 23 Z M8.625 90.375 C1.83661956 98.54569178 -1.57545471 107.55655563 -1.3125 118.22265625 C0.15212209 131.23948509 5.92163183 139.90606762 15.62890625 148.23828125 C24.2113461 154.61501992 33.56405621 155.70442621 44 155 C54.3445255 153.22579359 63.51778807 147.21187945 70 139 C76.03755255 129.07086848 78.63542132 119.22607129 76.34765625 107.71875 C74.29850269 100.19052921 71.38597028 94.63754426 66 89 C65.46503906 88.43667969 64.93007813 87.87335938 64.37890625 87.29296875 C56.52175703 79.85034538 46.31957023 76.63137674 35.67578125 76.7890625 C25.13763139 77.61980716 15.76655431 82.70444167 8.625 90.375 Z M6.27734375 184.1875 C0.6410427 192.18518711 -1.34545572 200.32723972 -1 210 C-0.05125 209.13375 0.8975 208.2675 1.875 207.375 C14.54645831 196.62960335 28.46672247 192.63919055 44.87548828 193.77685547 C57.43844238 195.09638432 67.7622896 201.76096099 77 210 C77.7636191 200.26385649 75.02471671 190.31147166 68.6953125 182.7734375 C60.08999163 173.77155806 50.93836194 168.23691576 38.3125 167.625 C25.03202554 167.97233549 14.48412801 174.00290346 6.27734375 184.1875 Z " fill="#000000" transform="translate(220,125)"/>
<path d="M0 0 C0.78375 0.04125 1.5675 0.0825 2.375 0.125 C4.42276294 4.45680622 6.28602137 8.50055834 7.30859375 13.19140625 C9.20501309 21.39938888 9.20501309 21.39938888 14.42578125 27.72558594 C19.15401372 30.48243179 24.15220449 32.44049073 29.28100586 34.31689453 C31.8675009 35.31506389 34.12970745 36.49693927 36.375 38.125 C37.1875 40.5 37.1875 40.5 36.375 43.125 C32.55840303 46.06696016 29.20193984 47.8590452 24.59765625 49.33984375 C18.71251071 51.40062368 13.97870787 53.31838933 10.76904297 58.93554688 C7.63191908 66.10795311 5.37091738 73.56367478 3.375 81.125 C0.405 81.62 0.405 81.62 -2.625 82.125 C-3.140625 81.01125 -3.65625 79.8975 -4.1875 78.75 C-4.57292969 77.93660156 -4.95835937 77.12320313 -5.35546875 76.28515625 C-6.37258696 73.75331431 -7.04947006 71.50298871 -7.67578125 68.87109375 C-10.03830306 59.98353513 -10.03830306 59.98353513 -16.08203125 53.34667969 C-21.68340323 50.26056127 -27.56087309 47.94389699 -33.60302734 45.87084961 C-35.625 45.125 -35.625 45.125 -36.625 44.125 C-36.9375 41.25 -36.9375 41.25 -36.625 38.125 C-34.10710509 35.87389958 -31.43938677 34.44428467 -28.3671875 33.08203125 C-27.57699219 32.73076172 -26.78679687 32.37949219 -25.97265625 32.01757812 C-25.15667969 31.66115234 -24.34070313 31.30472656 -23.5 30.9375 C-22.67628906 30.56947266 -21.85257812 30.20144531 -21.00390625 29.82226562 C-14.88876971 27.125 -14.88876971 27.125 -12.625 27.125 C-12.38716797 26.30322266 -12.38716797 26.30322266 -12.14453125 25.46484375 C-10.53365569 19.9914268 -8.82903707 14.54990679 -7.0625 9.125 C-6.85278564 8.4662085 -6.64307129 7.80741699 -6.42700195 7.12866211 C-4.14540529 0.19740025 -4.14540529 0.19740025 0 0 Z " fill="#000000" transform="translate(470.625,-0.125)"/>
<path d="M0 0 C1.97973633 0.18920898 1.97973633 0.18920898 4 1 C4.8269043 2.73071289 4.8269043 2.73071289 5.32421875 4.97265625 C7.46750648 14.22622428 7.46750648 14.22622428 12.96630859 21.61621094 C16.64157197 23.72669456 20.43271117 25.152596 24.4296875 26.52734375 C28 28 28 28 28.84814453 29.90454102 C29 32 29 32 27 35 C25.16890203 35.6138222 23.33559924 36.22225206 21.48925781 36.78857422 C16.73560097 38.3422032 12.40112423 39.78633346 9.62841797 44.16699219 C7.47063017 49.02990907 6.02627862 54.07306591 4.84277344 59.25341797 C4 61 4 61 1.91503906 61.75048828 C1.28307617 61.83282715 0.65111328 61.91516602 0 62 C-2.59360153 58.14582118 -3.55753794 54.73932642 -4.625 50.25 C-6.64460858 44.18482328 -8.74520766 42.00628995 -14.37646484 39.05175781 C-15.94448648 38.31564891 -17.52583449 37.60721481 -19.11962891 36.92871094 C-23.15358616 35.19271102 -23.15358616 35.19271102 -25 34 C-26.015625 31.25390625 -26.015625 31.25390625 -26 29 C-23.3773768 27.66180502 -20.75213401 26.3292849 -18.125 25 C-17.37863281 24.6184375 -16.63226563 24.236875 -15.86328125 23.84375 C-15.14785156 23.4828125 -14.43242187 23.121875 -13.6953125 22.75 C-13.03547363 22.41484375 -12.37563477 22.0796875 -11.69580078 21.734375 C-10 21 -10 21 -8 21 C-7.82984375 20.39414062 -7.6596875 19.78828125 -7.484375 19.1640625 C-2.73160173 2.73160173 -2.73160173 2.73160173 0 0 Z " fill="#000000" transform="translate(27,0)"/>
<path d="M0 0 C4.31154487 3.62561728 7.45066497 7.39582625 8.3203125 13.1015625 C8.61703425 18.85796437 7.34934111 23.29863129 4 28 C-0.25466167 32.47683721 -4.11648433 34.14973911 -10.25 34.3125 C-15.77230167 34.25414014 -18.60157417 33.32126032 -23 30 C-27.81037749 24.9296021 -29.48895107 20.24554268 -29.31640625 13.34375 C-28.61459188 8.14512504 -26.29086603 4.29086603 -22.625 0.625 C-14.9839639 -4.10516521 -7.91347542 -4.24982939 0 0 Z " fill="#000000" transform="translate(503,233)"/>
<path d="M0 0 C2.58297781 2.18991597 4.48415844 3.96831688 6 7 C6.13562708 9.77390111 6.21271963 12.5214446 6.23828125 15.296875 C6.246353 16.12326477 6.25442474 16.94965454 6.26274109 17.80108643 C6.27658371 19.55291648 6.28730507 21.30477352 6.29516602 23.05664062 C6.31234417 25.72578696 6.35622289 28.39368331 6.40039062 31.0625 C6.41052082 32.7656159 6.4190359 34.46874233 6.42578125 36.171875 C6.44328934 36.96583679 6.46079742 37.75979858 6.47883606 38.57781982 C6.45837225 43.85107179 5.46580686 46.7987767 2 51 C-1.20785018 53.35242347 -4.09649252 53.4684209 -8 53 C-13.57894737 49.84210526 -13.57894737 49.84210526 -15 47 C-15.11372327 45.66891009 -15.16922953 44.33255609 -15.19287109 42.99682617 C-15.20893402 42.17224411 -15.22499695 41.34766205 -15.24154663 40.49809265 C-15.28602528 36.72521801 -15.32706263 32.95251891 -15.35009766 29.17944336 C-15.36665551 27.19006653 -15.39394328 25.20074915 -15.43212891 23.21166992 C-15.48692264 20.34262245 -15.50877517 17.47496913 -15.5234375 14.60546875 C-15.54610687 13.71885056 -15.56877625 12.83223236 -15.59213257 11.91874695 C-15.57690016 7.46111406 -15.46002982 5.5958933 -12.65478516 1.9621582 C-8.19571316 -1.33355282 -5.30737658 -1.2810909 0 0 Z " fill="#000000" transform="translate(179,189)"/>
<path d="M0 0 C3.47884669 2.00672894 5.7062659 4.11879769 7 8 C7.39308695 12.79566077 7.48270142 15.06907584 5.25 19.375 C1.90909091 23.27272727 1.90909091 23.27272727 -1 24 C-5.64142953 23.92632652 -8.0336545 23.58383374 -12 21.1875 C-15.0641067 16.30407995 -14.85359978 11.61047858 -14 6 C-10.62874432 0.07124001 -6.575134 -0.6686577 0 0 Z " fill="#000000" transform="translate(178,153)"/>
<path d="M0 0 C3.375 0.9375 3.375 0.9375 5.375 3.9375 C5.59650947 6.46616005 5.69961127 8.84858888 5.6875 11.375 C5.70425781 12.69371094 5.72101563 14.01242188 5.73828125 15.37109375 C5.36715721 19.01449423 5.05157177 20.48859066 2.375 22.9375 C-3.43403733 23.66362967 -3.43403733 23.66362967 -6.31640625 21.90625 C-8.37098592 18.81518088 -8.09780442 15.58500343 -8.0625 12 C-8.0924707 10.92588867 -8.0924707 10.92588867 -8.12304688 9.83007812 C-8.11980957 6.33702308 -7.88206682 4.29549761 -5.82421875 1.4296875 C-3.625 -0.0625 -3.625 -0.0625 0 0 Z " fill="#000000" transform="translate(343.625,234.0625)"/>
<path d="M0 0 C2.16015625 1.55859375 2.16015625 1.55859375 4 4 C4.53125 7.53125 4.53125 7.53125 4.5 11.5 C4.5103125 12.8096875 4.520625 14.119375 4.53125 15.46875 C4 19 4 19 2.1953125 21.47265625 C0 23 0 23 -3.625 22.9375 C-7 22 -7 22 -9 19 C-9.22128109 16.28715129 -9.32455875 13.71080614 -9.3125 11 C-9.32861328 10.27554687 -9.34472656 9.55109375 -9.36132812 8.8046875 C-9.36618419 3.54071058 -9.36618419 3.54071058 -7.6640625 1.02734375 C-4.99264072 -0.62191429 -3.05885251 -0.43697893 0 0 Z " fill="#000000" transform="translate(323,274)"/>
<path d="M0 0 C2.8125 0.9375 2.8125 0.9375 4.8125 2.9375 C5.03802341 5.79315359 5.13678763 8.5200351 5.125 11.375 C5.14111328 12.15166016 5.15722656 12.92832031 5.17382812 13.72851562 C5.17876809 19.46380935 5.17876809 19.46380935 3.47729492 21.66430664 C0.9349046 23.60866293 -1.08508349 23.26066839 -4.1875 22.9375 C-7.1875 20.9375 -7.1875 20.9375 -8.1875 17.9375 C-9.23446806 6.60033162 -9.23446806 6.60033162 -6.0625 1.5625 C-3.1875 -0.0625 -3.1875 -0.0625 0 0 Z " fill="#000000" transform="translate(181.1875,301.0625)"/>
<path d="M0 0 C2.5 1.5625 2.5 1.5625 4 4 C4.46126687 7.69013497 4.48520386 10.02959229 2.8125 13.375 C0.49060303 15.45670073 -0.89157139 15.85197959 -4 16 C-6.93285432 15.23187149 -8.62461272 14.33784856 -10.875 12.3125 C-12.53583755 8.89855615 -11.91952707 6.61242777 -11 3 C-8.71707037 -1.16298932 -4.22696498 -0.74843646 0 0 Z " fill="#000000" transform="translate(177,0)"/>
</svg>
