<svg class="w-8 h-8  md:block" width="29" height="29" viewBox="0 0 29 29" fill="none" xmlns="http://www.w3.org/2000/svg">
    <path d="M21.1577 8.95053L21.1024 9.00589C20.962 9.11341 20.8001 9.1673 20.6346 9.1673C20.435 9.1673 20.2505 9.09969 20.1013 8.95053L19.9245 9.1273L20.1013 8.95052C19.8089 8.65817 19.8089 8.18649 20.1013 7.8941L23.2213 4.7741L23.0445 4.59732L23.2213 4.77409C23.5137 4.48173 23.9854 4.48173 24.2778 4.7741C24.5701 5.06645 24.5701 5.53814 24.2777 5.83053L21.1577 8.95053ZM5.83231 24.266C5.69194 24.3736 5.53 24.4275 5.36448 24.4275C5.16495 24.4275 4.98041 24.3599 4.83124 24.2107L4.65588 24.3861L4.83123 24.2107C4.53886 23.9183 4.53885 23.4466 4.83124 23.1543L7.95124 20.0343L7.77446 19.8575L7.95125 20.0342C8.24358 19.7419 8.71528 19.7419 9.00768 20.0343C9.30005 20.3266 9.30006 20.7983 9.00767 21.0907L5.88767 24.2107L5.83231 24.266ZM24.2678 24.2107L24.2125 24.2661C24.0721 24.3736 23.9102 24.4275 23.7446 24.4275C23.5451 24.4275 23.3606 24.3599 23.2114 24.2107L20.0914 21.0907L19.9146 21.2675L20.0914 21.0907C19.799 20.7983 19.799 20.3266 20.0914 20.0342C20.3838 19.7419 20.8554 19.7419 21.1478 20.0343L24.2678 23.1543L24.4446 22.9775L24.2678 23.1543C24.5602 23.4466 24.5602 23.9183 24.2678 24.2107ZM9.01791 8.95053L8.96255 9.00589C8.82218 9.11341 8.66024 9.1673 8.49472 9.1673C8.29519 9.1673 8.11064 9.09969 7.96148 8.95053L4.84148 5.83053L4.84147 5.83052C4.54911 5.53818 4.54911 5.06649 4.84149 4.77409C5.13383 4.48172 5.60552 4.48171 5.89791 4.7741L9.01791 7.8941L9.01792 7.8941C9.31029 8.18645 9.3103 8.65814 9.01791 8.95053ZM14.5547 20.2373C11.3827 20.2373 8.80469 17.6593 8.80469 14.4873C8.80469 11.3154 11.3827 8.7373 14.5547 8.7373C17.7266 8.7373 20.3047 11.3154 20.3047 14.4873C20.3047 17.6592 17.7266 20.2373 14.5547 20.2373ZM14.5547 10.2373C12.2066 10.2373 10.3047 12.1392 10.3047 14.4873C10.3047 16.8354 12.2066 18.7373 14.5547 18.7373C16.9027 18.7373 18.8047 16.8354 18.8047 14.4873C18.8047 12.1392 16.9027 10.2373 14.5547 10.2373ZM15.3047 1.4873V4.4873C15.3047 4.89925 14.9666 5.2373 14.5547 5.2373C14.1427 5.2373 13.8047 4.89925 13.8047 4.4873V1.4873C13.8047 1.07536 14.1427 0.737305 14.5547 0.737305C14.9666 0.737305 15.3047 1.07536 15.3047 1.4873ZM15.3047 24.4873V27.4873C15.3047 27.8992 14.9666 28.2373 14.5547 28.2373C14.1427 28.2373 13.8047 27.8992 13.8047 27.4873V24.4873C13.8047 24.0754 14.1427 23.7373 14.5547 23.7373C14.9666 23.7373 15.3047 24.0754 15.3047 24.4873ZM27.5547 13.7373C27.9666 13.7373 28.3047 14.0754 28.3047 14.4873C28.3047 14.8992 27.9666 15.2373 27.5547 15.2373H24.5547C24.1427 15.2373 23.8047 14.8992 23.8047 14.4873C23.8047 14.0754 24.1427 13.7373 24.5547 13.7373H27.5547ZM4.55469 13.7373C4.96663 13.7373 5.30469 14.0754 5.30469 14.4873C5.30469 14.8992 4.96663 15.2373 4.55469 15.2373H1.55469C1.14274 15.2373 0.804688 14.8992 0.804688 14.4873C0.804688 14.0754 1.14274 13.7373 1.55469 13.7373H4.55469Z" fill="black" stroke="#F8EDFF" stroke-width="0.5"></path>
</svg>